<svg xmlns="http://www.w3.org/2000/svg" viewBox="0 0 29.8 36.2"><defs><style>.cls-1{fill:#fff;}</style></defs><title>Asset 1</title><g id="Layer_2" data-name="Layer 2"><g id="Layer_1-2" data-name="Layer 1"><path class="cls-1" d="M20.2,36.2a.68.68,0,0,1-.7-.7V26.6a.68.68,0,0,1,.7-.7h8.9a.7.7,0,1,1,0,1.4H20.9v8.1a.71.71,0,0,1-.7.8"/><path class="cls-1" d="M5.6,34.8H19.9l8.5-8.5V5.8H5.6Zm14.6,1.4H4.9a.77.77,0,0,1-.8-.7V5.1a.68.68,0,0,1,.7-.7H29a.68.68,0,0,1,.7.7V26.6a.76.76,0,0,1-.2.5L20.6,36c0,.2-.2.2-.4.2"/><path class="cls-1" d="M18.6,11.5H9.9a.7.7,0,0,1,0-1.4h8.7a.68.68,0,0,1,.7.7.75.75,0,0,1-.7.7"/><path class="cls-1" d="M24.3,15H9.9a.7.7,0,0,1,0-1.4H24.3a.68.68,0,0,1,.7.7c.1.4-.3.7-.7.7"/><path class="cls-1" d="M24.3,18.6H9.9a.7.7,0,0,1,0-1.4H24.3a.68.68,0,0,1,.7.7c.1.4-.3.7-.7.7"/><path class="cls-1" d="M15.9,22.2h-6a.7.7,0,0,1,0-1.4h6a.68.68,0,0,1,.7.7c.1.4-.3.7-.7.7"/><path class="cls-1" d="M.7,32.7A.68.68,0,0,1,0,32V2.2A2.22,2.22,0,0,1,2.2,0H24.9a.68.68,0,0,1,.7.7.68.68,0,0,1-.7.7H2.2a.68.68,0,0,0-.7.7V31.9a.79.79,0,0,1-.8.8"/></g></g></svg>