<svg xmlns="http://www.w3.org/2000/svg" viewBox="0 0 39.2 36.5"><defs><style>.cls-1{fill:#fff;}</style></defs><title>Asset 1</title><g id="Layer_2" data-name="Layer 2"><g id="Layer_1-2" data-name="Layer 1"><g id="Layer_2-2" data-name="Layer 2"><g id="Layer_1-2-2" data-name="Layer 1-2"><path class="cls-1" d="M2.3,27.4l-.4,7.4,7.6-.4L35.3,9.3l-7.2-7ZM.9,36.5a.71.71,0,0,1-.6-.3.91.91,0,0,1-.3-.7l.5-8.7a.86.86,0,0,1,.3-.6L27.4.3A.86.86,0,0,1,28,0a.71.71,0,0,1,.6.3L37,8.5a.86.86,0,0,1,.3.6.86.86,0,0,1-.3.6L10.5,35.8l-.6.3-9,.4h0"/><path class="cls-1" d="M31.8,13.9a.86.86,0,0,1-.6-.3L23.6,6.3a.91.91,0,0,1,0-1.2.91.91,0,0,1,1.2,0l7.6,7.3a.91.91,0,0,1,0,1.2.86.86,0,0,1-.6.3"/><path class="cls-1" d="M7.1,30.6a.86.86,0,0,1-.6-.3.91.91,0,0,1,0-1.2L27.3,8.9a.85.85,0,0,1,1.2,1.2L7.7,30.3a.86.86,0,0,1-.6.3"/><path class="cls-1" d="M1.9,31.4H1.5a.37.37,0,0,0-.3.1L.9,35.7l4.2-.2c0-.2.1-.3.1-.5a3.18,3.18,0,0,0-3.3-3.6"/><path class="cls-1" d="M38.3,36.3H18.6a.9.9,0,1,1,0-1.8H38.3a.9.9,0,0,1,.9.9h0c-.1.5-.4.9-.9.9"/></g></g></g></g></svg>