<svg xmlns="http://www.w3.org/2000/svg" viewBox="0 0 34.9 36.2"><defs><style>.cls-1{fill:#fff;}</style></defs><title>Asset 1</title><g id="Layer_2" data-name="Layer 2"><g id="Layer_1-2" data-name="Layer 1"><path class="cls-1" d="M34.1,5.8H.8A.86.86,0,0,1,0,5a.86.86,0,0,1,.8-.8H34.1a.86.86,0,0,1,.8.8.79.79,0,0,1-.8.8"/><path class="cls-1" d="M22.4,5.5a5,5,0,0,0-4.9-4,5,5,0,0,0-4.9,4L11,5.2a6.66,6.66,0,0,1,13,0Z"/><path class="cls-1" d="M28.3,36.2H6.6a2.48,2.48,0,0,1-2.4-2.3L2.5,6.5a.79.79,0,0,1,.8-.8.77.77,0,0,1,.8.7L5.8,33.8a.79.79,0,0,0,.8.8H28.3a.86.86,0,0,0,.8-.8L30.8,6.4a.71.71,0,0,1,.8-.7.86.86,0,0,1,.8.8L30.7,33.9a2.48,2.48,0,0,1-2.4,2.3"/><path class="cls-1" d="M11.4,30.4a.77.77,0,0,1-.8-.7L9.5,10.9a.79.79,0,0,1,.8-.8.77.77,0,0,1,.8.7l1.1,18.8a.79.79,0,0,1-.8.8h0"/><path class="cls-1" d="M23.5,30.4h0a.79.79,0,0,1-.8-.8l1.1-18.8a.71.71,0,0,1,.8-.7.86.86,0,0,1,.8.8l-1,18.8a.88.88,0,0,1-.9.7"/><path class="cls-1" d="M17.5,30.4a.86.86,0,0,1-.8-.8V10.8a.8.8,0,0,1,1.6,0V29.6a.79.79,0,0,1-.8.8"/></g></g></svg>