<?xml version="1.0" standalone="no"?>
<!DOCTYPE svg PUBLIC "-//W3C//DTD SVG 1.1//EN" "http://www.w3.org/Graphics/SVG/1.1/DTD/svg11.dtd" >
<svg xmlns="http://www.w3.org/2000/svg">
<metadata></metadata>
<defs>
<font id="berthold_akzidenz_groteBdCnIt" horiz-adv-x="1024" >
<font-face units-per-em="2048" ascent="1638" descent="-410" />
<missing-glyph horiz-adv-x="512" />
<glyph unicode="&#xfb01;" horiz-adv-x="1150" d="M100 0l207 901h-131l45 197h133l25 106q14 61 30.5 108.5t50.5 78t95 47t166 16.5q96 0 194 -6l-47 -201h-70.5t-44 -5t-26.5 -14t-16 -24q-6 -14 -15.5 -50t-13.5 -56h143l-47 -197h-143l-207 -901h-328zM678 0l254 1098h325l-253 -1098h-326zM954 1200l58 246h325 l-57 -246h-326z" />
<glyph unicode="&#xfb02;" horiz-adv-x="1150" d="M100 0l207 901h-131l45 197h133l25 106q14 61 30.5 108.5t50.5 78t95 47t166 16.5q96 0 194 -6l-47 -201h-70.5t-44 -5t-26.5 -14t-16 -24q-6 -14 -15.5 -50t-13.5 -56h143l-47 -197h-143l-207 -901h-328zM680 0l334 1446h327l-333 -1446h-328z" />
<glyph horiz-adv-x="2048" />
<glyph horiz-adv-x="2048" />
<glyph unicode="&#xd;" horiz-adv-x="512" />
<glyph unicode=" "  horiz-adv-x="512" />
<glyph unicode="&#x09;" horiz-adv-x="512" />
<glyph unicode="&#xa0;" horiz-adv-x="512" />
<glyph unicode="!" horiz-adv-x="598" d="M127 0l72 311h303l-72 -311h-303zM293 469l100 696l68 281h303l-62 -262l-223 -715h-186z" />
<glyph unicode="&#x22;" horiz-adv-x="811" d="M186 1378.5v18.5q0 35 14.5 60.5t37 43t49 25.5t53.5 8q20 0 45 -6t46.5 -21.5t34.5 -41t13 -62.5q0 -10 -1 -17.5t-3 -15.5l-108 -534h-64l-113 512q-4 16 -4 30.5zM614 1378.5v18.5q0 35 14.5 60.5t37 43t49 25.5t53.5 8q20 0 45 -6t46.5 -21.5t34.5 -41t13 -62.5 q0 -10 -1 -17.5t-3 -15.5l-108 -534h-64l-113 512q-4 16 -4 30.5z" />
<glyph unicode="#" horiz-adv-x="1366" d="M182 381v252h230l26 196h-205v254h240l51 363h256l-53 -363h205l49 363h256l-49 -363h186v-254h-221l-27 -196h201v-252h-237l-54 -381h-256l54 381h-203l-53 -381h-252l49 381h-193zM666 633h202l29 196h-203z" />
<glyph unicode="$" horiz-adv-x="1067" d="M78 264q0 57 13 119.5t28 116.5h350q-6 -25 -13 -51.5t-12.5 -53t-9.5 -48t-4 -36.5q0 -35 20.5 -64.5t86.5 -29.5q57 0 81.5 25.5t30.5 38.5q10 18 17.5 42.5t12.5 49t7 45t2 31.5q0 20 -6 35.5t-25.5 35t-53.5 46t-89 67.5q-78 57 -126 96t-75.5 72t-38 68.5 t-10.5 86.5q0 55 13.5 112.5t31 105t31.5 79t18 37.5q31 57 64 91t76 52.5t99 25.5t134 11l41 187h162l-45 -195q41 -6 91 -18t94 -39t74 -76t30 -129q0 -47 -10.5 -99t-26.5 -114h-332q2 14 8 35.5t10 45.5t8.5 44.5t4.5 34.5q0 35 -22.5 56.5t-67.5 21.5q-33 0 -51.5 -8.5 t-28.5 -18.5q-16 -14 -26.5 -38.5t-19 -51.5t-11.5 -51.5t-3 -38.5q0 -39 14.5 -60.5t45.5 -46.5q8 -6 15 -13t21.5 -17.5t38 -28.5t62.5 -49q68 -53 115 -91t75.5 -72t41 -68.5t12.5 -82.5q0 -33 -8.5 -81t-22.5 -100t-35.5 -101t-46.5 -84q-37 -49 -84 -78t-99.5 -44 t-106.5 -21.5t-101 -8.5l-51 -211h-162l51 220q-39 6 -91 19t-100.5 44t-82 83t-33.5 138z" />
<glyph unicode="%" horiz-adv-x="1622" d="M178 713q0 41 8.5 83t18.5 83l67 295q14 57 30.5 110t50.5 93t92.5 63.5t156.5 23.5q117 0 178.5 -50t61.5 -144q0 -27 -5.5 -60.5t-11.5 -62.5l-75 -318q-16 -70 -34 -126t-50.5 -97t-85 -63.5t-140.5 -22.5q-262 0 -262 193zM379 735q0 -29 18.5 -40t46.5 -11 q41 0 57.5 18.5t28.5 65.5l95 408q10 43 12 55t2 22q0 39 -20.5 45.5t-32.5 6.5q-55 0 -71.5 -22.5t-31.5 -86.5l-88 -373q-4 -18 -10 -48t-6 -40zM479 0l713 1446h162l-713 -1446h-162zM993 172q0 41 8.5 83t18.5 83l67 293q14 57 31 110.5t50.5 93t92 63.5t156.5 24 q117 0 178.5 -50.5t61.5 -144.5q0 -27 -5 -59.5t-12 -63.5l-75 -315q-16 -70 -34 -126.5t-49.5 -97t-85 -63t-141.5 -22.5q-262 0 -262 192zM1194 195q0 -29 18.5 -40.5t47.5 -11.5q41 0 57 18.5t29 65.5l94 406q10 43 12 55t2 25q0 37 -20.5 43t-32.5 6q-55 0 -71.5 -22.5 t-31.5 -86.5l-88 -372q-4 -16 -10 -46t-6 -40z" />
<glyph unicode="&#x26;" horiz-adv-x="1366" d="M90 340q0 104 41 181t99.5 134.5t121 94t107.5 61.5q-12 61 -20.5 109.5t-8.5 103.5q0 96 23.5 163.5t61.5 115t86 75t94 42t88 18.5t69 4q160 0 244 -75t84 -196q0 -86 -37 -153.5t-92.5 -119.5t-120 -91t-119.5 -70q16 -57 53 -125.5t97 -162.5q20 29 35.5 58.5 t28.5 64t23.5 78.5t18.5 104h285q-20 -111 -48 -190t-60 -135t-64.5 -94t-59.5 -67q12 -10 28.5 -22.5t39 -21.5t55.5 -14t78 -3l-66 -236q-16 0 -31.5 -1t-31.5 -1q-72 0 -124 11.5t-90 28t-62.5 34.5t-41.5 33q-76 -35 -158.5 -65.5t-199.5 -30.5q-90 0 -168 23.5 t-135 69.5t-90 112.5t-33 154.5zM424 362q0 -74 49 -105.5t121 -31.5q45 0 70.5 8.5t54.5 18.5q-33 47 -56.5 85t-44 73.5t-39 76t-38.5 91.5q-47 -43 -82 -96.5t-35 -119.5zM731 1069q0 -31 4 -61.5t8 -61.5q66 39 113 90t47 129q0 37 -18.5 57.5t-44.5 20.5q-39 0 -74 -41 t-35 -133z" />
<glyph unicode="'" horiz-adv-x="425" d="M205 1378.5v18.5q0 35 14 60.5t37 43t49.5 25.5t52.5 8q20 0 45 -6t46.5 -21.5t35 -41t13.5 -62.5q0 -10 -1 -17.5t-3 -15.5l-109 -534h-63l-113 512q-4 16 -4 30.5z" />
<glyph unicode="(" horiz-adv-x="724" d="M113 -119q0 72 14 142.5t31 148.5l219 954q27 113 69.5 176.5t99 96.5t126 41t149.5 8q39 0 74 -1t76 -3l-29 -127q-66 2 -108.5 -3t-70.5 -23.5t-45.5 -54.5t-31.5 -95l-283 -1215q-6 -29 -11 -58.5t-5 -57.5q0 -37 17.5 -56.5t45 -28t64.5 -9.5t74 1l-31 -131 q-72 0 -150.5 3t-144 31t-107.5 88.5t-42 172.5z" />
<glyph unicode=")" horiz-adv-x="724" d="M-119 -410l29 127q66 -2 108.5 3.5t70.5 23.5t45.5 54t31.5 96l283 1214q6 29 11 58.5t5 58.5q0 37 -17.5 56t-45 27.5t-64.5 9.5t-74 -1l31 131q72 0 150.5 -3t144 -31t107.5 -88t42 -173q0 -72 -14 -142.5t-31 -148.5l-219 -954q-27 -113 -70 -177.5t-99 -96 t-125.5 -40t-149.5 -8.5q-39 0 -74 1t-76 3z" />
<glyph unicode="*" horiz-adv-x="894" d="M307 1253q2 4 3 7.5t3 7.5l258 -15l117 215h25l82 -241l241 -45q0 -12 4 -25l-219 -133l35 -252q-4 -4 -10 -6t-10 -6l-205 162l-228 -111q-10 8 -18 12l92 242z" />
<glyph unicode="+" horiz-adv-x="1366" d="M162 467v260h469v467h260v-467h465v-260h-465v-467h-260v467h-469z" />
<glyph unicode="," horiz-adv-x="512" d="M-25 -315l187 315h-113l72 313h307l-74 -313l-248 -315h-131z" />
<glyph unicode="-" horiz-adv-x="681" d="M143 604l54 236h553l-54 -236h-553z" />
<glyph unicode="." horiz-adv-x="512" d="M45 0l72 313h305l-72 -313h-305z" />
<glyph unicode="/" horiz-adv-x="598" d="M14 0l539 1446h244l-545 -1446h-238z" />
<glyph unicode="0" horiz-adv-x="1067" d="M129 274q0 61 13.5 136t31.5 155l119 514q33 137 70.5 202t72.5 93q37 31 81 49.5t90 29.5t89 15.5t76 4.5q68 0 136.5 -13.5t122.5 -48.5t89 -93t35 -151q0 -31 -4 -64.5t-9 -65t-11.5 -60.5t-10.5 -47l-112 -494q-23 -96 -48.5 -179t-74.5 -146.5t-133 -99.5t-222 -36 q-33 0 -72.5 4.5t-81.5 13.5t-81 24.5t-70 39.5q-33 25 -51 54.5t-28.5 58.5t-13.5 55.5t-3 48.5zM438 315q0 -35 14.5 -53t32 -27.5t34 -10.5t22.5 -1q35 0 58.5 13.5t38.5 37t24.5 54t17.5 65.5l158 686q8 27 8 62q0 37 -20.5 63.5t-80.5 26.5q-39 0 -62.5 -13.5 t-38.5 -36t-23.5 -53t-16.5 -63.5l-153 -668q-6 -23 -9.5 -44t-3.5 -38z" />
<glyph unicode="1" horiz-adv-x="1067" d="M391 0l246 1061q-31 -18 -53.5 -30.5t-48 -24t-58.5 -21.5t-80 -22l68 294q76 12 127 31t85 42.5t55.5 53t39.5 62.5h268l-333 -1446h-316z" />
<glyph unicode="2" horiz-adv-x="1067" d="M37 0q20 106 39.5 184t46.5 138.5t60.5 107.5t82.5 90t116 89t157 104q76 47 138 90t85 76q14 18 26.5 52t21.5 70.5t15 72.5t6 59q0 41 -20 69.5t-78 28.5q-37 0 -60.5 -12.5t-41 -46t-33.5 -95t-39 -159.5h-326q4 14 13.5 51t19.5 75.5t18.5 72.5l10.5 42 q12 45 33.5 99.5t71 102.5t134 80t224.5 32q57 0 132 -10.5t136 -43.5q18 -10 42 -26.5t45.5 -45t35.5 -70.5t14 -101q0 -37 -7 -81t-16.5 -86t-18.5 -76t-13 -50q-20 -59 -42 -100.5t-46.5 -70t-52 -49t-58.5 -40.5q-16 -12 -60 -40t-94 -61t-94.5 -61.5t-62.5 -40.5 q-39 -29 -62.5 -50.5t-38 -40t-22.5 -34.5t-14 -35h549l-60 -260h-913z" />
<glyph unicode="3" horiz-adv-x="1067" d="M113 276q0 53 10 105.5t22 105.5h318q-12 -47 -23.5 -99t-11.5 -93q0 -33 12.5 -51.5t29.5 -27.5t33.5 -11t22.5 -2q35 0 57.5 11t37 26.5t20.5 31t10 25.5q6 16 14.5 51t16.5 75t14 76t6 54q0 47 -29.5 63.5t-107.5 16.5h-102l57 244h117q43 0 84 7t63 52q6 12 14.5 40 t15.5 60.5t12 64.5t5 52q0 10 -2 24.5t-12 28.5q-4 6 -21.5 19.5t-56.5 13.5q-41 0 -66.5 -14.5t-42 -43t-26.5 -74.5t-22 -108h-318q20 88 36.5 151.5t35 109t41 76t55.5 55.5q57 43 141 63.5t183 20.5q68 0 137.5 -13.5t124.5 -46.5t91 -85t36 -132q0 -49 -13.5 -125 t-39.5 -149q-18 -55 -46 -88t-58 -49.5t-60.5 -21.5t-55.5 -7q18 -4 45 -10.5t51.5 -23.5t43 -49t18.5 -85q0 -8 -7 -66.5t-25.5 -136.5t-48 -157.5t-75.5 -131.5q-63 -74 -161.5 -98.5t-206.5 -24.5q-90 0 -153.5 16.5t-104.5 39.5q-80 45 -107.5 109.5t-27.5 135.5z" />
<glyph unicode="4" horiz-adv-x="1067" d="M49 311l55 240l635 897h424l-209 -905h136l-54 -232h-135l-72 -311h-317l74 311h-537zM373 551h268l86 362q2 8 12.5 48t22.5 86.5t24.5 89.5t16.5 59q-6 -14 -33 -57t-58.5 -90.5t-59 -89t-36.5 -54.5z" />
<glyph unicode="5" horiz-adv-x="1067" d="M129 276q0 47 8 95.5t19 95.5h319q-10 -35 -18 -76t-8 -69q0 -45 26.5 -72t73.5 -27q37 0 61.5 13.5t40 40t25.5 64.5t20 85q14 57 23.5 97t14.5 67.5t7 47t2 36.5q0 37 -10 51q-10 23 -32.5 36t-55.5 13t-53.5 -11t-32.5 -27.5t-19.5 -35t-9.5 -32.5h-305l201 780h780 l-57 -250h-479l-90 -315q14 14 34.5 32.5t48 35t64.5 26.5t86 10q125 0 189.5 -71.5t64.5 -194.5q0 -47 -9 -114.5t-25.5 -138.5t-37 -137.5t-41.5 -113.5q-10 -23 -32.5 -63.5t-70.5 -80.5t-127 -69t-202 -29q-80 0 -157.5 17.5t-141.5 66.5q-8 6 -24.5 20.5t-31.5 40 t-26.5 64.5t-11.5 92z" />
<glyph unicode="6" horiz-adv-x="1067" d="M139 287q0 53 10.5 111.5t28.5 138.5l113 489q20 88 47 168t79 141.5t138 98t225 36.5q61 0 129 -12t125.5 -43t94 -84t36.5 -133q0 -45 -8 -88t-18 -84h-305q6 23 15 59.5t9 55.5q0 47 -31.5 65.5t-64.5 18.5t-54.5 -11.5t-36 -29t-21.5 -37t-13 -35.5 q-14 -45 -34.5 -125t-47.5 -178q14 14 32.5 30.5t46.5 31t64.5 24.5t87.5 10q25 0 69 -7t87 -32.5t75 -77t32 -139.5q0 -47 -12.5 -112.5t-29 -130t-33 -116.5t-24.5 -73q-12 -31 -35.5 -72t-69.5 -77.5t-121 -63.5t-192 -27q-61 0 -122.5 9.5t-116.5 38.5q-78 41 -116 103 t-38 159zM449 315q0 -31 9 -50t23.5 -28.5t31.5 -12.5t34 -3q61 0 84.5 30t36.5 64q6 16 17 55.5t21.5 84.5t18.5 86t8 61q0 31 -14 48.5t-31.5 25.5t-35 9t-23.5 1q-31 0 -51.5 -11t-35 -28.5t-24.5 -39t-16 -42.5q-6 -14 -14.5 -48t-17.5 -71.5t-15 -73.5t-6 -57z" />
<glyph unicode="7" horiz-adv-x="1067" d="M238 1006l102 440h911l-57 -248q-37 -51 -76 -106.5t-81 -120t-87 -140t-94 -169.5q-59 -115 -98 -207.5t-66.5 -171t-47 -147t-38.5 -136.5h-366q47 135 96 259t121.5 261t179 302t266.5 380l-336 -4l-45 -192h-284z" />
<glyph unicode="8" horiz-adv-x="1067" d="M129 299q0 41 8 88t17.5 89t18.5 72t11 36q23 70 50.5 110.5t58.5 64t62.5 34t64.5 18.5q-72 25 -98.5 76t-26.5 112q0 27 7 74t22.5 98.5t39 100.5t56.5 84q41 43 121 78.5t215 35.5q98 0 167.5 -20t110.5 -49q74 -49 96.5 -111.5t22.5 -122.5q0 -20 -6 -76.5 t-27.5 -120t-61.5 -119.5t-110 -75q-10 -4 -22.5 -6t-16.5 -2q4 -2 15.5 -6t21.5 -10q49 -29 67.5 -78t18.5 -101q0 -31 -9 -83t-22.5 -108t-30 -107.5t-28.5 -79.5q-18 -39 -47 -78t-74 -71t-111.5 -51.5t-158.5 -19.5q-63 0 -137 11.5t-137.5 45.5t-105.5 98.5t-42 168.5z M438 309q0 -12 3 -28.5t14 -30.5q16 -23 41.5 -31t44.5 -8q35 0 57.5 12.5t35.5 29.5t20.5 35.5t11.5 30.5q4 18 13 54.5t17.5 76t14.5 74.5t6 49q0 33 -14.5 50.5t-33 25.5t-37 9t-28.5 1q-31 0 -51.5 -11t-32.5 -28.5t-19 -38t-12 -36.5q-6 -18 -14 -52t-16 -69 t-14.5 -66.5t-6.5 -48.5zM590 956q0 -47 31.5 -70.5t78.5 -23.5q59 0 95 49q12 18 21 50t16.5 67t11.5 65.5t4 45.5q0 33 -13.5 51t-32 26.5t-37 9.5t-26.5 1q-57 0 -78.5 -31t-35.5 -70q-6 -18 -12.5 -41.5t-11.5 -47t-8 -45t-3 -36.5z" />
<glyph unicode="9" horiz-adv-x="1067" d="M125 246q0 47 8 91t17 85h307q-10 -29 -18.5 -63.5t-5.5 -64.5t22.5 -50.5t68.5 -20.5q63 0 90 36t43 97q4 14 15.5 54.5t23 86.5t22.5 87t15 57q-10 -12 -26.5 -28.5t-44 -32t-66.5 -26.5t-92 -11q-20 0 -64.5 6t-88.5 31.5t-77.5 76t-33.5 138.5q0 43 7 87t17 89 q25 111 52.5 203t78.5 158.5t137 103.5t226 37q68 0 133 -14.5t119 -43.5q12 -6 35.5 -21.5t47 -44t41 -73.5t17.5 -111q0 -29 -4 -71.5t-14 -85.5l-134 -572q-23 -96 -44 -160.5t-43.5 -105.5t-47 -66.5t-55.5 -46.5q-55 -39 -131 -60.5t-164 -21.5q-53 0 -119.5 11.5 t-127 41t-101.5 82t-41 136.5zM555 850q0 -35 13.5 -52.5t30.5 -26.5t33.5 -10t20.5 -1q33 0 54.5 11t36 26.5t21.5 31t11 25.5q10 27 22.5 69t21.5 83t15.5 74.5t6.5 47.5q0 39 -24 69t-83 30q-35 0 -56.5 -12.5t-34.5 -31t-20.5 -39t-11.5 -38.5q-6 -20 -16 -57t-19.5 -75 t-15.5 -73t-6 -51z" />
<glyph unicode=":" horiz-adv-x="598" d="M127 0l72 313h305l-72 -313h-305zM311 797l72 313h307l-72 -313h-307z" />
<glyph unicode=";" horiz-adv-x="598" d="M61 -317l187 317h-115l72 313h309l-72 -313l-247 -317h-134zM317 797l72 313h309l-73 -313h-308z" />
<glyph unicode="&#x3c;" horiz-adv-x="1366" d="M76 592v254l1366 606v-285l-1002 -448l1002 -440v-285z" />
<glyph unicode="=" horiz-adv-x="1366" d="M80 254v260h1366v-260h-1366zM80 680v260h1366v-260h-1366z" />
<glyph unicode="&#x3e;" horiz-adv-x="1366" d="M131 -6v285l1002 440l-1002 448v285l1366 -606v-254z" />
<glyph unicode="?" horiz-adv-x="937" d="M205 0l71 313h308l-74 -313h-305zM293 1036q20 88 34.5 144.5t28 94.5t28.5 61.5t38 45.5q31 29 72 47.5t86 28.5t89 13.5t81 3.5q47 0 109.5 -7.5t117.5 -33t94 -77.5t39 -143q0 -51 -14.5 -111.5t-30.5 -107.5q-12 -31 -25.5 -53t-36 -45t-57.5 -47.5t-88 -61.5 q-76 -53 -118 -83.5t-64.5 -60.5t-32.5 -67.5t-22 -103.5h-308q20 88 33.5 142.5t28 89t34 58t52.5 50.5q14 12 55 39t87 58.5t87 60t55 45.5q29 33 44.5 81t15.5 87q0 35 -19.5 55.5t-56.5 20.5q-33 0 -52.5 -9.5t-33.5 -35t-25.5 -68.5t-25.5 -111h-299z" />
<glyph unicode="@" horiz-adv-x="1835" d="M217 481q0 203 72.5 381t199.5 310.5t299.5 209t370.5 76.5q143 0 257 -45t192 -125t119.5 -188.5t41.5 -237.5q0 -141 -39.5 -272t-107.5 -232.5t-156 -162t-184 -60.5q-57 0 -92 17.5t-55.5 41t-27.5 47t-9 35.5q-51 -63 -113.5 -101t-144.5 -38q-61 0 -112.5 22.5 t-90.5 66.5t-60.5 107.5t-21.5 145.5q0 111 34 217.5t93 190.5t140 135t177 51q51 0 88 -13t62 -32.5t41 -41t27 -36.5l18 80h186l-69 -325q-8 -39 -17.5 -87.5t-17.5 -95.5t-14.5 -88t-6.5 -63q0 -12 5.5 -37t33.5 -25q35 0 80 44t86 119t68.5 174t27.5 208 q0 123 -40.5 207t-106.5 136t-146.5 75.5t-162.5 23.5q-147 0 -283.5 -63.5t-242 -174t-169 -258t-63.5 -315.5q0 -170 61.5 -280.5t154.5 -177t201.5 -93t205.5 -26.5q199 0 358.5 79t306.5 220l96 -127q-55 -51 -127.5 -109.5t-166 -108.5t-209 -83t-256.5 -33 q-78 0 -166 15.5t-176 50t-169 90t-143.5 137.5t-99.5 191.5t-37 250.5zM768 496q0 -66 18.5 -102t42 -52t44 -19.5t24.5 -3.5q47 0 92 34t81 89.5t57.5 127t21.5 147.5q0 70 -36 121t-103 51q-55 0 -100.5 -39t-77 -97.5t-48 -127t-16.5 -129.5z" />
<glyph unicode="A" horiz-adv-x="1110" d="M-27 0l621 1446h563l-104 -1446h-344l30 322h-268l-123 -322h-375zM565 569h197l65 744z" />
<glyph unicode="B" horiz-adv-x="1110" d="M43 0l332 1446h416q76 0 154.5 -4t142 -25.5t104.5 -69t41 -135.5q0 -31 -5 -68.5t-13.5 -74.5t-15.5 -67.5t-13 -47.5q-14 -43 -33.5 -72.5t-49.5 -51t-71 -35t-100 -21.5q25 -6 55.5 -16t58 -30.5t46 -53.5t18.5 -84q0 -25 -10 -82t-24.5 -123t-33 -127t-32.5 -94 q-43 -94 -131 -129t-222 -35h-614zM453 254h151q39 0 62.5 9t37 26.5t21.5 42t14 55.5l29 123q6 18 6 45q0 41 -29.5 55.5t-70.5 14.5h-137zM594 870h125q61 0 100 19.5t55 91.5l23 96q2 10 3 18.5t1 18.5q0 27 -10 41t-26.5 21.5t-38 8.5t-42.5 1h-116z" />
<glyph unicode="C" horiz-adv-x="1067" d="M100 258v22.5t3 37t10.5 57.5t19.5 86l139 608q16 74 36 127t39.5 90t42 60.5t44.5 39.5q37 27 83 43.5t93 25.5t92.5 12t79.5 3q66 0 141.5 -10t129.5 -33q27 -12 54.5 -30.5t50 -47t36.5 -71.5t14 -100q0 -47 -12 -103l-43 -178h-336l39 170q6 20 6 47q0 31 -10 49.5 t-26.5 27.5t-35 12t-36.5 3q-63 0 -84 -25.5t-33 -60.5l-172 -741q-4 -18 -8 -37.5t-4 -38.5q0 -27 11 -43t27.5 -24.5t33 -10.5t28.5 -2q33 0 55.5 10.5t35.5 24.5t20.5 29.5t11.5 25.5q18 53 32.5 112.5t26.5 119.5h359l-52 -209q-25 -98 -56.5 -167t-87.5 -113 t-143 -64.5t-220 -20.5q-70 0 -132.5 7.5t-115.5 29.5q-27 10 -59.5 29.5t-60.5 50.5t-47.5 73t-19.5 97z" />
<glyph unicode="D" horiz-adv-x="1110" d="M45 0l334 1448h405q96 0 179.5 -4t144.5 -27.5t97 -74t36 -140.5q0 -59 -16 -137l-164 -713q-23 -98 -47.5 -165.5t-67.5 -108.5t-110.5 -59.5t-173.5 -18.5h-617zM451 242h70.5h41t23.5 1t18 3q12 2 27.5 6t32 17.5t32 39t25.5 72.5l160 702q2 10 3 18.5t1 18.5 q0 51 -29 65.5t-74 14.5h-110z" />
<glyph unicode="E" horiz-adv-x="894" d="M41 0l334 1446h727l-58 -250h-374l-76 -328h356l-55 -245h-358l-84 -369h409l-57 -254h-764z" />
<glyph unicode="F" horiz-adv-x="854" d="M45 0l334 1446h725l-55 -246h-379l-76 -330h364l-57 -247h-364l-144 -623h-348z" />
<glyph unicode="G" horiz-adv-x="1110" d="M88 231q0 37 5 79t13.5 85t17.5 84t17 74q27 109 56.5 232.5t60.5 250.5q20 90 46 170t78 139.5t141 94.5t237 35q96 0 153.5 -12.5t92.5 -24.5q57 -23 94 -51.5t58.5 -61.5t30.5 -65.5t9 -59.5q0 -29 -5 -57.5t-11 -55.5l-35 -151h-336l35 147q2 10 3 19.5t1 19.5 q0 29 -10.5 45.5t-24.5 25.5t-29.5 12t-27.5 3q-37 0 -61.5 -12t-42 -33.5t-28 -48.5t-16.5 -57l-153 -664q-4 -16 -6 -33.5t-2 -33.5q0 -14 2 -28.5t12 -29.5q16 -23 42.5 -32t49.5 -9q37 0 61.5 14.5t39 35t22.5 44t12 39.5q10 31 18.5 68t22.5 90h-141l53 234h473 l-172 -752h-334l25 104q2 10 4 18.5t4 16.5q-23 -31 -48.5 -60.5t-60 -53t-81.5 -37t-111 -13.5q-115 0 -184.5 63.5t-69.5 192.5z" />
<glyph unicode="H" horiz-adv-x="1150" d="M43 0l334 1448h352l-135 -590h240l135 590h352l-336 -1448h-350l141 608h-239l-142 -608h-352z" />
<glyph unicode="I" horiz-adv-x="555" d="M43 0l334 1446h350l-334 -1446h-350z" />
<glyph unicode="J" horiz-adv-x="768" d="M35 0l59 260h99q88 0 122.5 42t53.5 128l227 1016h352l-243 -1055q-23 -96 -48.5 -168.5t-72.5 -122t-126 -75t-208 -25.5h-215z" />
<glyph unicode="K" horiz-adv-x="1110" d="M43 0l334 1446h348l-150 -639l406 639h373l-467 -670l178 -776h-358l-138 776l-178 -776h-348z" />
<glyph unicode="L" horiz-adv-x="811" d="M45 0l334 1446h350l-276 -1200h370l-57 -246h-721z" />
<glyph unicode="M" horiz-adv-x="1579" d="M45 0l334 1446h483l-14 -408q0 -12 -1 -48t-2 -77t-2 -78.5t-1 -52.5q-4 -92 -9.5 -174t-11.5 -182q23 51 48.5 112.5t54.5 129.5q12 27 25.5 58.5t25.5 62t23.5 57t19.5 45.5l246 555h481l-334 -1446h-326l273 1073l-481 -1073h-293l10 1073l-223 -1073h-326z" />
<glyph unicode="N" horiz-adv-x="1150" d="M45 0l334 1446h340q23 -176 38 -294t25.5 -211t19.5 -182t21 -210q14 92 24.5 152.5t20 109.5t19.5 98t24 119q16 78 26.5 127t20 90t18.5 85t23 116h322l-336 -1446h-336l-51 416q-10 88 -17.5 142t-12.5 101.5t-10 99.5t-11 132l-176 -891h-326z" />
<glyph unicode="O" horiz-adv-x="1110" d="M115 295q0 41 8 93t16 87l133 559q20 88 47 167t80.5 139.5t144.5 95t240 34.5q29 0 70 -3t86 -10t90 -22.5t80 -39.5q37 -27 59.5 -56.5t33.5 -61.5t15.5 -62.5t4.5 -57.5q0 -72 -18.5 -159t-35.5 -158l-114 -488q-25 -106 -63 -179t-96 -118t-143 -65.5t-204 -20.5 q-72 0 -148.5 12.5t-140 48.5t-104.5 99.5t-41 165.5zM461 315q0 -84 106 -84q72 0 100.5 50.5t53.5 148.5q8 29 26.5 105.5t39 162.5t39 164t26.5 111q10 43 16 67.5t9.5 40t4.5 22.5t1 15q0 41 -24.5 66.5t-76.5 25.5q-68 0 -90 -29.5t-30 -58.5q-6 -23 -23.5 -87 t-40.5 -150t-47.5 -180.5t-44 -176.5t-32.5 -141t-13 -72z" />
<glyph unicode="P" horiz-adv-x="1067" d="M45 0l334 1446h543q33 0 85 -4t101 -25.5t85 -67.5t36 -132q0 -23 -3 -55t-12 -62l-47 -211q-20 -88 -45.5 -147.5t-67.5 -96.5t-104.5 -52t-154.5 -15h-267l-133 -578h-350zM588 840h137q33 0 63.5 11t53.5 69q4 10 11 36.5t15.5 59.5t13.5 63.5t5 46.5q0 27 -11.5 41.5 t-25.5 20.5t-29.5 7t-23.5 1h-125z" />
<glyph unicode="Q" horiz-adv-x="1110" d="M119 301q0 68 20 158l127 565q20 88 45 170t78 144.5t146.5 99.5t250.5 37q29 0 69 -3.5t82 -10.5t84 -21.5t77 -34.5q76 -47 98.5 -110.5t22.5 -129.5q0 -12 -1 -29.5t-4.5 -48t-12.5 -77.5t-23 -115l-115 -496q-23 -100 -51.5 -174.5t-72.5 -126t-110.5 -81 t-166.5 -37.5q-12 -39 -22.5 -74t-10.5 -56q0 -41 32.5 -52t88.5 -11q23 0 45 1t45 3l-64 -209q-88 0 -172 1t-125 5q-92 10 -130 56.5t-40 105.5q0 12 2 25.5t8.5 38t18.5 65.5t33 111q-31 8 -75 24.5t-83 50t-66.5 90t-27.5 146.5zM461 324q0 -53 33.5 -72t74.5 -19 q39 0 63.5 14.5t40 39t25 56.5t17.5 67l151 649q4 16 7.5 33.5t3.5 33.5q0 41 -27 66t-80 25q-35 0 -56.5 -11.5t-34.5 -30t-21.5 -44t-14.5 -54.5l-174 -694q-4 -16 -6 -29.5t-2 -29.5z" />
<glyph unicode="R" horiz-adv-x="1110" d="M43 0l334 1446h422q76 0 151.5 -4t136 -25.5t97.5 -70t37 -136.5q0 -29 -5.5 -67.5t-14.5 -81.5t-21.5 -83t-26.5 -69q-20 -45 -48 -74.5t-60.5 -48t-70.5 -28.5t-79 -17q20 -4 53 -12t63.5 -26.5t53 -49t22.5 -80.5q0 -23 -4 -46t-10 -58l-45 -219q-2 -12 -6 -34.5 t-9 -47.5t-8.5 -46.5t-3.5 -29.5q0 -47 24 -63.5t40 -22.5v-12l-303 10q-47 2 -76 21.5t-29 68.5q0 8 2.5 24.5t12.5 65.5l53 258q8 39 11 56.5t3 31.5q0 53 -33.5 65.5t-68.5 12.5h-100l-142 -608h-352zM594 864h96q55 2 90 11.5t60 64.5q8 16 15 45t13 59.5t10.5 55 t4.5 33.5q0 20 -7.5 32.5t-18.5 18.5t-22.5 8t-19.5 2t-15 1t-22.5 1h-40h-65.5z" />
<glyph unicode="S" horiz-adv-x="1067" d="M78 258q0 55 13 116.5t30 123.5h348q-12 -47 -25.5 -103.5t-13.5 -83.5q0 -35 13.5 -54t32 -28.5t35.5 -10.5t24 -1q70 0 104 45q10 14 19.5 37t15.5 48.5t10 49t4 39.5q0 37 -17.5 61.5t-58.5 59.5q-10 8 -20 15.5t-23.5 18.5t-36 27.5t-57.5 43.5q-59 45 -100 76.5 t-65.5 63.5t-35 66.5t-10.5 85.5q0 41 11.5 96.5t30 111t42 105.5t45.5 81q14 18 35 39.5t59.5 40t100 30.5t157.5 12q98 0 178.5 -13t136.5 -44t88 -83t32 -130q0 -43 -10.5 -92t-26.5 -121h-332q4 16 9 38t10.5 44.5t8.5 41.5t3 32q0 25 -9.5 41t-23.5 25.5t-30.5 12.5 t-28.5 3q-49 0 -71 -19.5t-26 -29.5q-10 -16 -18 -39t-13.5 -46.5t-8.5 -44t-3 -30.5q0 -25 5.5 -42.5t20.5 -34.5t44 -39.5t74 -55.5q98 -74 157.5 -123t90 -87t40 -73t9.5 -80q0 -39 -11 -86q-18 -109 -52 -187.5t-92 -129.5t-147.5 -77t-220.5 -26q-72 0 -150.5 9.5 t-145 39t-110.5 86t-44 148.5z" />
<glyph unicode="T" horiz-adv-x="854" d="M195 0l276 1196h-264l59 250h856l-57 -250h-242l-276 -1196h-352z" />
<glyph unicode="U" horiz-adv-x="1110" d="M106 295q2 51 12.5 118.5t39.5 186.5l200 848h349l-238 -1034q-4 -10 -8 -34t-4 -46q0 -45 29.5 -65.5t76.5 -20.5q37 0 61.5 14t41 38t25.5 53.5t18 60.5l237 1034h348l-239 -1034q-18 -84 -47 -162t-84.5 -139.5t-147.5 -98.5t-239 -37q-86 0 -165 16.5t-139.5 54.5 t-94.5 98q-32 57 -32 139v10z" />
<glyph unicode="V" d="M201 0l65 1446h336l-37 -549q-6 -117 -13 -199t-14.5 -147.5t-15.5 -125.5t-18 -134q45 141 72.5 224t33.5 99l308 832h376l-606 -1446h-487z" />
<glyph unicode="W" horiz-adv-x="1662" d="M141 0l129 1446h344l-69 -498q-2 -14 -7.5 -52t-11.5 -80t-11 -81t-7 -53q-10 -72 -18.5 -125t-16.5 -95t-15 -76t-16 -69q27 80 44.5 129.5t25.5 69.5l375 930h422l-68 -1108q14 59 38 155.5t58 204.5l246 748h350l-530 -1446h-438q4 113 7 187.5t5 132t4 108.5t4 121 q2 74 4 131t5 114.5t9.5 125t14.5 159.5q-27 -84 -45.5 -139t-40 -112.5t-52 -132t-79.5 -193.5l-211 -502h-449z" />
<glyph unicode="X" d="M-68 0l463 815l-129 631h346l60 -428l217 428h375l-422 -686l119 -760h-343l-55 545l-258 -545h-373z" />
<glyph unicode="Y" horiz-adv-x="1067" d="M264 1446h342l49 -590l295 590h391l-600 -975l-108 -471h-348l116 500z" />
<glyph unicode="Z" horiz-adv-x="980" d="M-53 0l61 266l729 928h-485l57 254h871l-62 -268l-721 -914h510l-61 -266h-899z" />
<glyph unicode="[" horiz-adv-x="724" d="M4 -418l442 1866h529l-31 -133h-223l-381 -1606h221l-29 -127h-528z" />
<glyph unicode="\" horiz-adv-x="598" d="M268 1446h238l37 -1446h-242z" />
<glyph unicode="]" horiz-adv-x="724" d="M-143 -418l28 127h230l370 1606h-219l31 133h528l-440 -1866h-528z" />
<glyph unicode="^" horiz-adv-x="1492" d="M330 637l415 809h213l398 -809h-283l-225 473l-238 -473h-280z" />
<glyph unicode="_" d="M-82 -154h1065v-102h-1065v102z" />
<glyph unicode="`" horiz-adv-x="512" d="M-33 1495h344l195 -254h-250z" />
<glyph unicode="a" horiz-adv-x="980" d="M37 170q0 25 8 70t22.5 95t35 97t44.5 76q25 29 61 51.5t96.5 45t154.5 51t237 69.5q8 33 16.5 75t8.5 54q0 43 -31 52t-57 9q-35 0 -56.5 -9t-36 -28.5t-24.5 -50t-22 -71.5h-312q18 72 32.5 121t33 83.5t44 58t62.5 42.5q57 29 133 43t162 14q70 0 139.5 -10t123 -37 t87 -74t33.5 -118q0 -31 -5 -62t-13 -61l-146 -631q-2 -12 -4 -24.5t-2 -24.5q0 -37 9.5 -50.5t21.5 -25.5h-373l29 115q-29 -25 -59.5 -49.5t-67.5 -46t-78 -35t-90 -13.5q-8 0 -43 3t-74 21.5t-69.5 59.5t-30.5 115zM375 252q0 -29 15.5 -48.5t55.5 -19.5q43 0 76 21.5 t60 44.5l67 264q-55 -16 -116.5 -37.5t-90.5 -44.5q-20 -16 -33.5 -44t-20.5 -55.5t-10 -50t-3 -30.5z" />
<glyph unicode="b" d="M33 0l334 1446h331l-106 -465q16 23 38.5 47.5t52.5 46t70 35.5t93 14q43 0 84 -12t72.5 -40t52 -71t20.5 -106q0 -39 -10 -106.5t-25.5 -142.5t-32 -145.5t-26.5 -115.5q-14 -61 -35.5 -133t-61.5 -133.5t-105.5 -103.5t-166.5 -42q-59 0 -98 17.5t-63.5 42t-38 50.5 t-19.5 40l-28 -123h-332zM432 276q0 -39 23.5 -60t62.5 -21q43 0 74 29.5t43 86.5l98 426q10 45 12.5 60.5t2.5 23.5q0 29 -19.5 55.5t-69.5 26.5q-8 0 -22 -1t-30.5 -9t-31 -25.5t-22.5 -50.5l-117 -502q-2 -10 -3 -19t-1 -20z" />
<glyph unicode="c" horiz-adv-x="980" d="M109 264q0 35 9 92.5t22.5 122t29.5 130t29.5 118.5t23.5 88t10 37q31 94 83.5 148.5t114 81t126 33.5t121.5 7q176 0 278.5 -72.5t102.5 -205.5q0 -41 -8.5 -80t-18.5 -76h-315q10 41 19 79t9 60q0 33 -20 53.5t-61 20.5q-68 0 -93.5 -42t-40.5 -101l-102 -439 q-2 -10 -3 -19t-1 -19q0 -23 4 -34t8 -16q22 -36 73 -36h3q35 0 56.5 13t35.5 37.5t22.5 58.5t18.5 77h330q-16 -72 -36.5 -141.5t-68.5 -128.5q-63 -80 -160.5 -110t-201.5 -30q-25 0 -62.5 3t-83 12.5t-90.5 29t-81.5 52t-59 81t-22.5 115.5z" />
<glyph unicode="d" d="M90 205q0 27 9.5 80t22.5 117.5t28.5 134t30 128t25.5 99.5t13 49q14 53 35.5 108.5t56.5 100.5t89.5 73.5t138.5 28.5q27 0 61.5 -6t70.5 -21.5t65.5 -43t45.5 -70.5l107 463h330l-334 -1446h-330l33 133q-18 -23 -42 -48.5t-55.5 -49t-72.5 -38.5t-94 -15q-23 0 -62 6 t-77 29.5t-66.5 67.5t-28.5 120zM426 266q0 -47 27.5 -63.5t56.5 -16.5q33 0 54.5 15.5t34.5 38t20.5 50t13.5 50.5l98 424q4 14 6 26.5t2 26.5q0 37 -20.5 62.5t-65.5 25.5q-33 0 -53 -14t-33.5 -34.5t-20.5 -46.5t-11 -46l-95 -410q-4 -18 -9 -44.5t-5 -43.5z" />
<glyph unicode="e" d="M111 266q0 55 16 148.5t39.5 190.5t47.5 179t36 113q14 33 39.5 73t73 73.5t122 57t187.5 23.5q49 0 115.5 -7t127 -34.5t102.5 -81t42 -145.5q0 -35 -5 -69.5t-14 -69.5q-12 -59 -24 -117.5t-29 -128.5h-524q-12 -47 -24.5 -106.5t-12.5 -94.5q0 -18 6 -32 q25 -41 90 -41q35 0 55.5 11t34 31.5t21.5 50t16 64.5h334q-16 -61 -37.5 -128.5t-73.5 -123.5q-49 -57 -135 -94t-231 -37q-20 0 -57 2t-80 11.5t-87 26t-81 44.5q-35 29 -62.5 76t-27.5 135zM508 672h211q2 12 7 33.5l10 43t8.5 42t3.5 30.5q0 16 -3.5 30.5t-13.5 25.5 q-16 18 -38.5 23t-39.5 5q-37 0 -60.5 -14t-38.5 -43t-24.5 -73t-21.5 -103z" />
<glyph unicode="f" horiz-adv-x="641" d="M100 0l207 901h-131l45 197h133l25 106q14 61 30.5 108.5t51.5 79t96 47t166 15.5q88 0 192 -6l-47 -201h-70.5t-44 -5t-26.5 -14t-16 -24q-6 -14 -15.5 -50t-13.5 -56h143l-47 -197h-143l-207 -901h-328z" />
<glyph unicode="g" d="M-14 -223q0 31 5 56.5t13 53.5h326q-8 -31 -12.5 -49t-6.5 -28.5t-2 -15.5v-11q0 -29 11.5 -44t26.5 -22.5t30.5 -8.5t23.5 -1q12 0 27.5 2t33 15.5t34 41t28.5 78.5l68 289q-16 -23 -40 -48.5t-55.5 -49t-73.5 -38.5t-97 -15q-39 0 -80 12t-76 41q-37 35 -52.5 82 t-15.5 106q0 49 12.5 124t31 155t39 155.5t34.5 124.5q20 72 48 133.5t67 107.5t93 72.5t130 26.5q59 0 102 -18.5t71 -45t40 -53t12 -40.5l33 133h330l-256 -1110q-31 -129 -58.5 -215t-89.5 -150q-68 -70 -162 -94.5t-192 -24.5q-31 0 -97.5 5.5t-134 31t-118.5 80.5 t-51 156zM428 287q0 -31 9 -49.5t22.5 -26.5t28 -10t22.5 -2q59 0 89 43t40 92l104 454q4 20 5 33q0 27 -9.5 43.5t-23 25.5t-28.5 12t-28 3q-35 0 -70.5 -24.5t-56.5 -108.5l-90 -387q-4 -20 -9 -48t-5 -50z" />
<glyph unicode="h" d="M39 0l334 1446h325l-110 -473q18 23 42.5 47t56.5 45.5t74 36t95 14.5q43 0 83 -11t71.5 -36t51 -63.5t19.5 -96.5q0 -23 -4 -47t-8 -47l-188 -815h-324l178 772q6 25 6 49q0 47 -26.5 66.5t-59.5 19.5q-31 0 -50 -11t-30.5 -26.5t-17.5 -33t-8 -29.5l-184 -807h-326z " />
<glyph unicode="i" horiz-adv-x="512" d="M39 0l252 1098h325l-254 -1098h-323zM315 1200l58 246h323l-55 -246h-326z" />
<glyph unicode="j" horiz-adv-x="512" d="M-197 -403l50 215q39 0 66.5 2t47 12t32.5 31.5t24 62.5l272 1178h323l-274 -1188q-27 -117 -58.5 -181.5t-89 -93t-150.5 -33.5t-243 -5zM319 1202l58 246h321l-55 -246h-324z" />
<glyph unicode="k" d="M41 0l334 1446h325l-176 -762l340 414h367l-426 -473l188 -625h-336l-155 590l-135 -590h-326z" />
<glyph unicode="l" horiz-adv-x="512" d="M39 0l334 1446h327l-333 -1446h-328z" />
<glyph unicode="m" horiz-adv-x="1579" d="M41 0l252 1098h330l-29 -125q37 51 83 81.5t88 45t75.5 18.5t48.5 4q29 0 62.5 -7t64.5 -23.5t52.5 -46t27.5 -74.5q122 153 318 153h3q31 0 70 -7t73.5 -27.5t58 -57.5t23.5 -96q0 -25 -4 -48.5t-8 -45.5l-194 -842h-332l180 778q2 10 3 20.5t1 20.5q0 33 -18.5 59.5 t-65.5 26.5q-35 0 -56.5 -14t-33.5 -34.5t-19.5 -41t-9.5 -35.5l-180 -780h-334l183 791q6 20 6 38q0 39 -23.5 61.5t-62.5 22.5q-51 0 -81 -33.5t-42 -86.5l-182 -793h-328z" />
<glyph unicode="n" d="M41 0l252 1098h321l-26 -109q45 49 92 76t87 39t69.5 15t42.5 3q23 0 57.5 -6t67 -26.5t56 -59.5t23.5 -106q0 -29 -4 -55.5t-10 -51.5l-188 -817h-326l176 772q4 18 5 31.5t1 19.5q0 29 -10 45.5t-24.5 23.5t-26.5 8t-14 1q-35 0 -57.5 -16.5t-37 -38t-20.5 -43 t-8 -33.5l-179 -770h-319z" />
<glyph unicode="o" d="M111 272q0 45 14 126t33.5 166t38 154.5t24.5 92.5q12 43 36 98.5t70 103.5t120.5 80.5t193.5 32.5q61 0 135 -8t137.5 -38.5t106.5 -91t43 -163.5q0 -43 -14.5 -125t-34 -170t-39 -165.5t-31.5 -112.5q-14 -43 -37.5 -91t-69.5 -90t-123 -69t-200 -27q-92 0 -167 16.5 t-127 51.5t-80.5 92.5t-28.5 136.5zM430 281q0 -33 20.5 -58.5t67.5 -25.5q33 0 53.5 12t33.5 32.5t21.5 47t14.5 55.5l98 438q6 20 6 43v6q-1 37 -25 55q-26 20 -63 21q-33 0 -54 -12t-33.5 -31.5t-18.5 -41t-10 -40.5l-103 -438q-4 -14 -6 -30.5t-2 -32.5z" />
<glyph unicode="p" d="M-51 -395l344 1493h330l-37 -140q20 27 45.5 55.5t59.5 53.5t77 40t100 15q94 0 158 -55t64 -166q0 -33 -4.5 -64.5t-12.5 -66.5l-106 -463q-37 -162 -111 -247t-209 -85q-94 0 -156.5 42t-80.5 108q-4 8 -3 21.5t-4 0.5l-124 -542h-330zM440 279q0 -47 28 -66.5 t58 -19.5q41 0 70 27.5t43 88.5l98 428q6 27 11.5 50.5t5.5 41.5q0 41 -23.5 62.5t-60.5 21.5q-31 0 -51.5 -10t-33 -25.5t-19.5 -33t-9 -31.5l-104 -453l-8.5 -42.5t-4.5 -38.5z" />
<glyph unicode="q" d="M90 188q0 43 10.5 107.5t23.5 134.5t28.5 136.5t27.5 113.5q20 84 44 164t63 142.5t98 100t154 37.5q72 0 116.5 -19.5t70.5 -45t37 -52t13 -40.5l31 131h328l-347 -1499h-327l119 512l-35 -40t-51.5 -45.5t-71.5 -36t-96 -14.5q-6 0 -22.5 1t-39 5.5t-48.5 13.5t-50 25 q-47 35 -61.5 78t-14.5 90zM418 274q0 -45 24.5 -66.5t59.5 -21.5q63 0 88.5 45t40.5 107l92 395q4 18 9 44t5 48q0 8 -2 19.5t-6 21.5q-8 16 -20.5 24.5t-24.5 12.5t-23.5 5t-13.5 1q-31 0 -51.5 -14t-34.5 -35.5t-21.5 -46.5l-13.5 -45q-10 -37 -18 -67.5t-15.5 -57.5 t-14.5 -53.5t-13 -57.5q-6 -23 -13.5 -58.5t-15.5 -74.5t-13 -73.5t-5 -51.5z" />
<glyph unicode="r" horiz-adv-x="681" d="M41 0l254 1098h323l-51 -219q33 63 65 105t69.5 67.5t83.5 40t112 24.5l-82 -305q-16 2 -33.5 2h-33.5q-68 0 -110 -15.5t-69.5 -49t-45 -86t-36.5 -127.5l-122 -535h-324z" />
<glyph unicode="s" horiz-adv-x="937" d="M55 240q0 39 7.5 70.5t17.5 64.5h315q-8 -25 -15 -52.5t-7 -56.5q0 -43 27.5 -56t54.5 -13q8 0 25.5 2t33.5 12q29 20 38 54t9 57q0 31 -11 46t-30 31q-12 10 -45 35t-68.5 51.5t-64.5 47t-31 22.5q-57 45 -89 92t-32 111q0 25 5.5 52.5t13.5 55t17.5 53t19.5 42.5 q45 80 143 120.5t234 40.5q80 0 149.5 -15t120.5 -47t81 -79t30 -111q0 -29 -5.5 -56.5t-11.5 -55.5h-309q4 16 11 43.5t7 44.5q0 2 -2 12t-9 21.5t-23.5 19.5t-47.5 8q-37 0 -57 -16.5t-29.5 -35.5t-10.5 -35.5t-1 -18.5q0 -29 16.5 -48.5t47.5 -41.5l16 -13 q16 -12 36.5 -25.5t39 -26.5t22.5 -17q51 -37 91 -65.5t66 -58.5t39 -62.5t13 -77.5q0 -25 -5 -60t-16.5 -69.5t-26.5 -69.5t-36 -60q-41 -49 -127 -89t-231 -40q-117 0 -174.5 16.5t-79.5 26.5q-78 35 -115 87.5t-37 132.5z" />
<glyph unicode="t" horiz-adv-x="641" d="M127 164q0 27 4 49.5t14 56.5l152 631h-131l45 197h133l80 350h321l-81 -350h145l-47 -197h-144l-133 -571q-4 -14 -6 -31.5t-2 -32.5q0 -43 32 -50t101 -7l-47 -209q-109 0 -189.5 2t-136 17.5t-83 49t-27.5 95.5z" />
<glyph unicode="u" d="M88 178q0 16 3 47t13 76l183 797h331l-165 -717q-10 -39 -14.5 -62.5t-4.5 -42.5q0 -41 24.5 -60t53.5 -19q33 0 55.5 17t36.5 44t23.5 57.5t15.5 57.5l166 725h330l-254 -1098h-328l25 115q-18 -20 -44 -44t-60 -44.5t-77 -33.5t-98 -13q-31 0 -67.5 7t-69.5 28.5 t-55.5 60.5t-22.5 102z" />
<glyph unicode="v" horiz-adv-x="894" d="M168 0l25 1098h317q-10 -113 -17.5 -220.5t-15.5 -211.5q-8 -111 -13 -178.5t-10 -116.5t-9.5 -91t-12.5 -102q20 72 38.5 130.5t35 109.5t33 100t36.5 105q18 49 42 111.5t48.5 126t49 126t43.5 111.5h340l-490 -1098h-440z" />
<glyph unicode="w" horiz-adv-x="1492" d="M197 1098h315q-4 -55 -5 -90t-3 -65t-3 -62.5t-3 -85.5q-4 -74 -7.5 -127.5t-6.5 -108.5t-9 -124.5t-16 -176.5l80 254l211 586h368q-4 -78 -7 -125t-4 -85t-3 -78t-4 -103q-4 -59 -6 -103.5t-5.5 -90.5t-9.5 -105.5t-14 -149.5q16 59 31.5 119.5t44.5 134.5l217 586h342 l-496 -1098h-352q0 141 1 238.5t4 182.5t8 176t14 222q-16 -51 -27.5 -86t-26 -75t-34 -92t-52.5 -136q-57 -143 -98 -249.5t-70 -180.5h-360z" />
<glyph unicode="x" horiz-adv-x="937" d="M-49 0l411 586l-147 512h324l61 -299l172 299h340l-371 -551l148 -547h-320l-69 319l-191 -319h-358z" />
<glyph unicode="y" horiz-adv-x="894" d="M-119 -399l45 241q39 -1 70 -1t54 1q46 2 70.5 15.5t32 44t9.5 86.5l33 1108h325l-90 -965q8 39 14.5 64.5t12.5 47t13 44t19 57.5l256 752h355l-445 -1014q-68 -154 -122 -249t-118.5 -147.5t-155.5 -69.5t-232 -17q-35 0 -72 1t-74 1z" />
<glyph unicode="z" horiz-adv-x="854" d="M-37 0l47 209l553 684h-370l47 205h757l-47 -201l-542 -676h421l-51 -221h-815z" />
<glyph unicode="{" horiz-adv-x="811" d="M186 430v176q39 6 71 16.5t54.5 40t34.5 85t12 153.5v139q0 102 9.5 177t64.5 135q31 35 69 54t84 28.5t100 11.5t120 2v-150q-66 0 -100.5 -14t-51 -45t-19.5 -78t-3 -110v-121q0 -70 -3 -137.5t-24.5 -123t-68 -94t-129.5 -51.5v-12q84 -12 130 -51t67.5 -94.5 t24.5 -122t3 -133.5v-144q0 -55 3 -98t19.5 -71.5t51 -44t100.5 -15.5v-150q-66 0 -120 2t-100 11.5t-84 29t-69 54.5q-55 59 -64.5 132.5t-9.5 184.5v109q0 59 -3 114.5t-18 99.5t-51 71.5t-100 33.5z" />
<glyph unicode="|" horiz-adv-x="468" d="M201 -512v2048h260v-2048h-260z" />
<glyph unicode="}" horiz-adv-x="811" d="M190 -262q66 0 101 14.5t51 45t19.5 77.5t3.5 111v120q0 70 3 137.5t24.5 123t67.5 94.5t130 51v12q-84 12 -130 51t-67.5 94.5t-24.5 122t-3 132.5v145q0 55 -3.5 98t-19.5 72t-52 44t-100 15v150q66 0 120.5 -2t99.5 -11.5t82.5 -29t70.5 -53.5q55 -59 64.5 -133 t9.5 -185v-108q0 -59 3 -114.5t18.5 -99.5t50 -72t100.5 -34v-176q-39 -8 -70.5 -18.5t-54 -39t-35 -84t-12.5 -153.5v-139q0 -102 -9.5 -177t-64.5 -134q-33 -35 -70.5 -54.5t-82.5 -29t-99.5 -11.5t-120.5 -2v150z" />
<glyph unicode="~" horiz-adv-x="1492" d="M307 616q18 25 45 59t66 63.5t90 50t117 20.5q31 0 55.5 -4t55 -14.5t71.5 -29t104 -46.5q31 -16 73 -31.5t83 -15.5q33 0 63.5 13t56 31.5t47 40t38.5 40.5l106 -213q-55 -59 -104 -93t-90 -51.5t-73 -22.5t-52 -5t-69.5 8t-145.5 57q-80 41 -124 58.5t-85 17.5 q-33 0 -57.5 -7t-48 -24.5t-49 -45.5t-60.5 -66z" />
<glyph unicode="&#xa1;" horiz-adv-x="598" d="M41 0l59 260l224 715h188l-104 -696l-64 -279h-303zM301 1133l74 313h303l-74 -313h-303z" />
<glyph unicode="&#xa2;" horiz-adv-x="980" d="M109 264q0 35 9 92.5t22.5 121t28.5 129t29.5 118.5t23.5 88t11 39q29 88 73 139t95.5 77t107.5 35t112 15l53 223h160l-56 -231q35 -6 83 -18.5t92 -41t75 -79.5t31 -135q0 -43 -8.5 -80t-18.5 -68h-315q10 41 19 79t9 60q0 35 -21.5 54.5t-57.5 19.5q-53 0 -84 -29.5 t-52 -113.5l-102 -439q-2 -10 -3 -19t-1 -19q0 -23 4 -34t8 -16q23 -37 76 -36q35 0 56.5 13t35.5 37.5t22.5 58.5t18.5 77h330q-10 -41 -20.5 -85t-28 -87t-43 -81t-62.5 -69q-25 -20 -62.5 -37.5t-79.5 -29.5t-84 -18.5t-79 -2.5l-61 -262h-158l63 277q-35 8 -77.5 24.5 t-81.5 47t-65.5 80.5t-26.5 126z" />
<glyph unicode="&#xa3;" horiz-adv-x="1323" d="M37 223q0 49 18.5 98.5t55 88.5t90 62.5t125.5 23.5q84 0 134 -22.5t97 -53.5q2 33 1 57.5t-5 48t-12.5 49t-20.5 60.5h-317l26 117h254q-18 72 -30.5 134t-12.5 134q0 131 38 218t102.5 139.5t152.5 74t187 21.5q90 0 162.5 -15.5t125.5 -46.5q57 -33 89 -86t32 -133 q0 -53 -12 -110.5t-29 -123.5h-311q6 23 12 49.5t11.5 52t9.5 46t4 33.5q0 41 -22.5 68.5t-82.5 27.5q-31 0 -50 -9t-32.5 -21.5t-20.5 -26t-9 -21.5q-12 -29 -20.5 -60.5t-12.5 -62t-6 -57.5t-2 -45q0 -45 6 -89t16 -91h408l-27 -117h-362q6 -35 11 -67.5t5 -69.5 q0 -61 -15.5 -110.5t-37.5 -102.5q16 -10 37.5 -21.5t50.5 -11.5q33 0 54.5 13.5t36.5 41t26.5 71.5t27.5 105h320q-29 -121 -53.5 -215t-64.5 -158.5t-100.5 -99.5t-158.5 -35q-59 0 -103.5 13.5t-79 33t-60 43t-46.5 44.5q-16 -16 -40.5 -39t-62.5 -44.5t-90.5 -36 t-119.5 -14.5q-76 0 -131.5 20.5t-92 54.5t-55 79t-18.5 94zM225 236q0 -31 13.5 -50.5t33 -31t40 -15.5t34.5 -4q66 0 106.5 36t65.5 67q-29 35 -69.5 68.5t-108.5 33.5q-55 0 -85 -30.5t-30 -73.5z" />
<glyph unicode="&#xa4;" horiz-adv-x="1366" d="M119 219l168 166q-14 23 -29.5 50.5t-29 64.5t-21.5 85t-8 111q0 61 8 109.5t21.5 85.5t28.5 64.5t28 50.5l-162 163l192 195l164 -164q18 12 47 26.5t67 29t87 23.5t111 9q61 0 109 -8t85 -21.5t64.5 -29t50.5 -29.5l164 164l196 -195l-168 -163q29 -47 58.5 -118 t29.5 -192q0 -61 -9 -110t-22.5 -87t-28.5 -67t-28 -49l166 -168l-196 -195l-164 168q-18 -10 -47 -25.5t-67 -28.5t-87 -22.5t-106 -9.5q-121 0 -194 31t-118 57l-166 -165zM455 694q0 -82 30.5 -145.5t78.5 -106.5t107.5 -64.5t119.5 -21.5q74 0 134 27t105 73t69.5 107 t24.5 133q0 82 -29.5 144.5t-77.5 105.5t-107.5 65.5t-118.5 22.5q-61 0 -122 -22.5t-108 -65.5t-76.5 -106.5t-29.5 -145.5z" />
<glyph unicode="&#xa5;" horiz-adv-x="1067" d="M70 375l49 192h270l-16 127h-226l48 193h151l-82 561h342l47 -598l297 598h391l-346 -561h152l-47 -193h-226l-75 -127h266l-41 -192h-307l-84 -375h-348l86 375h-301z" />
<glyph unicode="&#xa6;" horiz-adv-x="468" d="M201 358h260v-716h-260v716zM201 666v716h260v-716h-260z" />
<glyph unicode="&#xa7;" horiz-adv-x="937" d="M45 197l160 165q20 -23 48 -50t60.5 -50.5t71.5 -40t82 -16.5q33 0 60.5 13t27.5 44q0 27 -19.5 47.5t-74.5 61.5q-72 53 -125 96t-88 83t-52.5 83t-17.5 98q0 68 21.5 113t51.5 75.5t61.5 48t54.5 27.5q-12 12 -26.5 28.5t-29 39t-23.5 52.5t-9 69q0 57 24.5 110.5 t72.5 92t118.5 62.5t162.5 24q86 0 151.5 -19.5t115 -47.5t82 -57.5t53.5 -50.5l-152 -161q-51 47 -106.5 82.5t-126.5 35.5q-6 0 -20.5 -1t-28 -6t-23.5 -16t-10 -32q0 -12 4 -21.5t17.5 -21.5t38 -30.5t65.5 -49.5q66 -49 115 -87t81.5 -75.5t49 -78.5t16.5 -95 q0 -66 -20.5 -111.5t-50 -78.5t-62.5 -54.5t-58 -35.5q29 -35 54.5 -78t25.5 -113q0 -53 -19.5 -105t-64.5 -94t-117.5 -69t-177.5 -27q-102 0 -179 28t-131 64.5t-87 73.5t-47 56zM408 819q0 -39 21.5 -62.5t37.5 -37.5l31 -23q32 -24 71 -54t77 -58.5t50 -38.5 q23 18 41.5 39.5t18.5 56.5q0 20 -6.5 35.5t-20.5 31t-40.5 36t-65.5 49.5q-41 31 -82 62.5t-82 62.5q-12 -12 -31.5 -37t-19.5 -62z" />
<glyph unicode="&#xa8;" horiz-adv-x="512" d="M-141 1237l57 256h285l-60 -256h-282zM309 1237l58 256h286l-57 -256h-287z" />
<glyph unicode="&#xa9;" horiz-adv-x="1705" d="M221 723q0 158 58.5 291t159 230t232.5 152.5t279 55.5q154 0 287 -56.5t231.5 -154.5t154.5 -232t56 -290q0 -145 -54 -276.5t-151.5 -231.5t-231.5 -158.5t-294 -58.5q-141 0 -273 53t-232.5 149.5t-161 230.5t-60.5 296zM287 723q0 -141 52 -262t142 -210t211 -140.5 t258 -51.5q143 0 265 53.5t210 144.5t138.5 210t50.5 252q0 139 -50.5 261t-139.5 212t-209.5 142t-264.5 52q-135 0 -256 -51t-212 -141t-143 -211t-52 -260zM455 729q0 96 32.5 188.5t97 163t160 113.5t222.5 43q84 0 148.5 -18.5t112.5 -45t83 -56.5t57 -54l-178 -172 q-59 57 -111.5 78.5t-115.5 21.5q-66 0 -114 -22.5t-79 -60.5t-46 -85t-15 -96q0 -129 73.5 -197.5t186.5 -68.5q45 0 80.5 10t62.5 24.5t46.5 30t31.5 27.5l178 -164q-100 -106 -201.5 -139t-199.5 -33q-121 0 -215.5 38t-161 106.5t-101 162.5t-34.5 205z" />
<glyph unicode="&#xaa;" horiz-adv-x="641" d="M186 870q0 18 5.5 47t14.5 61t21.5 60.5t28.5 46.5q35 41 122 71t218 65q10 45 12 57t2 20q0 35 -51 35q-10 0 -21.5 -2t-23.5 -11t-22.5 -28.5t-16.5 -56.5h-199q12 43 19.5 69.5t13.5 43t11.5 25.5t15.5 20q35 37 97.5 54t133.5 17q78 0 124 -15t69 -32 q37 -27 43 -56.5t6 -45.5q0 -20 -3 -40t-7 -38l-90 -393q-4 -20 -4 -31q0 -23 5 -31t17 -18h-242l15 65q-33 -29 -75 -56.5t-101 -27.5q-4 0 -27 2.5t-47.5 13.5t-44 36.5t-19.5 72.5zM401 924q0 -39 43 -39q23 0 41.5 11t38.5 28l41 157q-35 -10 -70.5 -21t-52.5 -26 q-12 -10 -19 -25.5t-12 -33t-7.5 -31.5t-2.5 -20z" />
<glyph unicode="&#xab;" horiz-adv-x="894" d="M106 457l62 262l389 266l-68 -293l-170 -117l115 -118l-59 -256zM516 457l59 260l392 270l-70 -297l-166 -117l113 -116l-62 -260z" />
<glyph unicode="&#xac;" horiz-adv-x="1366" d="M72 465v260h1364v-725h-260v465h-1104z" />
<glyph unicode="&#xad;" horiz-adv-x="681" d="M143 604l54 236h553l-54 -236h-553z" />
<glyph unicode="&#xae;" horiz-adv-x="1705" d="M221 723q0 158 58.5 291t159 230t231.5 152.5t278 55.5q154 0 288 -56.5t232.5 -154.5t154.5 -231t56 -289q0 -145 -54 -277.5t-151.5 -232.5t-231.5 -158.5t-294 -58.5q-141 0 -273 53t-232.5 149.5t-161 230.5t-60.5 296zM287 723q0 -141 52 -262t142 -210t211 -140.5 t256 -51.5q145 0 267 53.5t211.5 144.5t138.5 211t49 253q0 137 -50.5 259t-139.5 212t-210.5 142t-265.5 52q-135 0 -255 -51t-211 -140t-143 -211t-52 -261zM608 262v938h334q78 0 130 -4t93 -18q45 -14 77 -40t51.5 -57.5t28.5 -66.5t9 -68q0 -51 -16.5 -87t-41 -60.5 t-53 -41t-53.5 -26.5q20 -12 37 -25.5t29 -32t21.5 -47t17.5 -71.5q14 -90 29.5 -158.5t50.5 -134.5h-258q-10 20 -17.5 40t-12.5 42.5t-10 51t-12 69.5q-10 70 -19 107.5t-28.5 56t-56.5 22.5t-104 4v-393h-226zM834 834h98q33 0 64.5 2t56 11t39 29.5t14.5 57.5 q0 31 -12.5 49t-27.5 27.5t-31.5 12.5t-22.5 3t-14.5 1t-27 1h-50h-86.5v-194z" />
<glyph unicode="&#xaf;" horiz-adv-x="512" d="M-96 1237l41 178h663l-39 -178h-665z" />
<glyph unicode="&#xb0;" horiz-adv-x="724" d="M199 1171q0 72 26.5 136.5t73.5 112.5t111.5 77t140.5 29t140.5 -29t111.5 -77t73.5 -112.5t26.5 -136.5t-27.5 -135t-74.5 -111t-111.5 -77t-138.5 -29t-137.5 27.5t-111.5 76t-75.5 113t-27.5 135.5zM438 1176q0 -47 34 -80t81 -33t80 32.5t33 80.5q0 51 -34 82.5 t-79 31.5q-47 0 -81 -32.5t-34 -81.5z" />
<glyph unicode="&#xb1;" horiz-adv-x="1366" d="M182 0v260h1194v-260h-1194zM182 760v260h469v426h260v-426h465v-260h-465v-428h-260v428h-469z" />
<glyph unicode="&#xb2;" horiz-adv-x="681" d="M135 543q10 76 26.5 132t39 98t51.5 73t63 57q14 12 55.5 38t85.5 55.5t80.5 55t45.5 38.5q10 12 18 35.5t14.5 48t9.5 45t3 30.5q0 39 -22.5 46.5t-35.5 7.5q-25 0 -39 -9.5t-25 -31t-20.5 -58.5t-21.5 -94h-207q18 86 34.5 150.5t49.5 109.5t88 67.5t147 22.5 q37 0 83.5 -5t86 -23.5t67.5 -54.5t28 -99q0 -35 -11.5 -100.5t-40.5 -130.5q-14 -31 -29.5 -51.5t-37 -39t-49 -36t-64.5 -39.5q-57 -35 -92 -57.5t-56.5 -41t-33.5 -35t-23 -36.5h345l-39 -168h-574z" />
<glyph unicode="&#xb3;" horiz-adv-x="681" d="M174 717q0 35 6 68.5t15 66.5h202q-8 -33 -12 -52.5t-6 -31.5t-3 -20.5t-1 -16.5q0 -35 21.5 -45t47.5 -10q25 0 43.5 10t30.5 45q2 8 8 29.5t10.5 46t8.5 48.5t4 36q0 16 -5 25.5t-20.5 13.5t-44 5t-78.5 1l37 158h74t41 2t20.5 5t14.5 9q12 10 20 32.5t13.5 47t7.5 45 t2 27.5q0 18 -7.5 29.5t-16.5 15.5t-19 5t-15 1q-53 0 -70.5 -31t-33.5 -115h-203q18 74 34.5 130.5t48.5 93t87.5 55t147.5 18.5q45 0 89 -9t78.5 -28.5t57 -53.5t22.5 -83q0 -33 -9 -82t-23 -90q-4 -10 -10.5 -24.5t-18.5 -29.5t-31.5 -28.5t-50.5 -17.5q-4 -2 -8 -2l8 -2 q2 0 14.5 -5t24.5 -16.5t22.5 -30t10.5 -49.5q0 -10 -5 -41.5t-14.5 -73.5t-22.5 -85t-32 -74q-39 -66 -104.5 -88.5t-157.5 -22.5q-104 0 -177 42t-73 147z" />
<glyph unicode="&#xb4;" horiz-adv-x="512" d="M-8 1239l190 256h340l-282 -256h-248z" />
<glyph unicode="&#xb6;" horiz-adv-x="1366" d="M264 1006q0 25 3 63.5t17.5 83.5t41 92t73.5 90q41 39 84 60.5t85 33t83 14.5t76 3h512v-160h-74v-1628h-172v1628h-241v-1628h-172v940q-27 6 -79 25.5t-104.5 63.5t-92.5 121t-40 198z" />
<glyph unicode="&#xb7;" horiz-adv-x="512" d="M168 561l72 313h307l-74 -313h-305z" />
<glyph unicode="&#xb8;" horiz-adv-x="512" d="M39 -301q29 -10 58.5 -20.5t62.5 -10.5q31 0 51 10.5t32.5 25.5t16.5 31.5t4 26.5q0 31 -23.5 52.5t-58.5 21.5q-10 0 -19 -1t-20 -3q-2 10 -4 26.5t-4 26.5l117 115h168l-96 -115q16 -2 41.5 -7t49 -18.5t40 -39t16.5 -70.5q0 -33 -13.5 -67.5t-43 -63.5t-76.5 -47 t-113 -18q-61 0 -103 15t-83 36v94z" />
<glyph unicode="&#xb9;" horiz-adv-x="681" d="M324 543l149 655q-23 -12 -39 -20.5t-31.5 -14.5t-34 -12t-44.5 -12l45 192q59 6 111 32t83 83h172l-211 -903h-200z" />
<glyph unicode="&#xba;" horiz-adv-x="641" d="M211 930q0 27 9 78t20.5 103t22.5 96t16 59q8 29 22 63.5t44 64t76 50t120 20.5q31 0 77 -4t88 -22.5t71.5 -56.5t29.5 -105q0 -25 -9.5 -80t-22.5 -115.5t-28.5 -116t-25.5 -81.5q-8 -18 -22.5 -43t-43 -46.5t-74.5 -36t-118 -14.5q-51 0 -96 8.5t-80 30t-55.5 57 t-20.5 91.5zM414 936q0 -20 11 -34.5t40 -14.5q41 0 52 26.5t22 63.5l61 272q4 16 4 27q0 31 -20.5 39t-32.5 8q-39 0 -51.5 -26.5t-16.5 -49.5l-63 -272q-6 -18 -6 -39z" />
<glyph unicode="&#xbb;" horiz-adv-x="894" d="M76 199l67 293l168 122l-112 115l59 262l268 -262l-61 -262zM485 201l68 293l170 116l-117 119l60 256l268 -256l-62 -262z" />
<glyph unicode="&#xbc;" horiz-adv-x="1622" d="M324 543l149 655q-23 -12 -39 -20.5t-31.5 -14.5t-34 -11t-44.5 -13l45 192q59 6 111 32t83 85h172l-211 -905h-200zM442 0l713 1448h162l-713 -1448h-162zM946 190l35 158l395 557h269l-129 -561h83l-32 -149h-84l-47 -195h-205l47 190h-332zM1157 348h160l35 152 q23 88 37 144t24 91q-23 -37 -38 -60.5t-27.5 -43t-26.5 -41t-37 -53.5z" />
<glyph unicode="&#xbd;" horiz-adv-x="1622" d="M322 543l151 653q-23 -12 -39 -19.5t-32.5 -13.5t-35 -12t-44.5 -12l45 192q59 6 112 32t82 83h174l-211 -903h-202zM416 0l712 1446h164l-714 -1446h-162zM948 0q10 76 26.5 132t39 98t51.5 73t63 57q14 12 55.5 38t85.5 55.5t80.5 55.5t45.5 38q10 12 18 35.5t14.5 48 t9.5 45t3 31.5q0 39 -22.5 46t-35.5 7q-25 0 -39 -9.5t-25 -31t-20.5 -58t-21.5 -94.5h-207q18 86 34.5 150.5t49.5 109.5t88 68t148 23q37 0 83 -5.5t85.5 -24t67.5 -54t28 -99.5q0 -35 -11.5 -100.5t-39.5 -130.5q-14 -31 -30 -51.5t-37.5 -39t-49 -36t-64.5 -39.5 q-57 -35 -92 -57.5t-56.5 -41t-33.5 -35t-22 -36.5h344l-39 -168h-574z" />
<glyph unicode="&#xbe;" horiz-adv-x="1622" d="M174 717q0 35 6 68.5t15 66.5h202q-8 -33 -12 -52.5t-6 -31.5t-3 -20.5t-1 -16.5q0 -35 21.5 -45t47.5 -10q25 0 43.5 10t30.5 45q2 8 8 29.5t10.5 46t8.5 48.5t4 36q0 16 -5 25.5t-20.5 13.5t-44 5t-78.5 1l37 158h74t41 2t20.5 5t14.5 9q12 10 20 32.5t13.5 47t7.5 45 t2 27.5q0 18 -7.5 29.5t-16.5 15.5t-19 5t-15 1q-53 0 -70.5 -31t-33.5 -115h-203q18 74 34.5 130.5t48.5 93t87.5 55t147.5 18.5q45 0 89 -9t78.5 -28.5t57 -53.5t22.5 -83q0 -33 -9 -82t-23 -90q-4 -10 -10.5 -24.5t-18.5 -29.5t-31.5 -28.5t-50.5 -17.5q-4 -2 -8 -2l8 -2 q2 0 14.5 -5t24.5 -16.5t22.5 -30t10.5 -49.5q0 -10 -5 -41.5t-14.5 -73.5t-22.5 -85t-32 -74q-39 -66 -104.5 -88.5t-157.5 -22.5q-104 0 -177 42t-73 147zM502 0l712 1448h162l-712 -1448h-162zM946 190l35 158l395 557h269l-132 -561h86l-34 -149h-82l-47 -195h-207 l47 190h-330zM1157 348h160l35 152q23 90 37 145t24 90q-23 -37 -38 -59.5t-27.5 -43t-26.5 -42t-37 -53.5z" />
<glyph unicode="&#xbf;" horiz-adv-x="937" d="M49 233q0 49 14.5 109.5t30.5 108.5q12 31 25.5 54t36 45.5t57.5 47.5t88 61q76 51 118 83t64.5 62t32.5 67.5t23 103.5h307q-20 -88 -33.5 -142.5t-28 -89t-34 -58t-52.5 -50.5q-14 -12 -55 -40t-87 -58.5t-87 -60.5t-55 -44q-29 -33 -44.5 -81t-15.5 -87q0 -76 76 -76 q33 0 52.5 9.5t33.5 35t24.5 68.5t26.5 111h299q-20 -88 -34.5 -145.5t-27.5 -94.5t-28.5 -60.5t-38.5 -45.5q-31 -31 -73.5 -48.5t-89 -27.5t-89.5 -13.5t-75 -3.5q-49 0 -111.5 7.5t-118 33t-93.5 77.5t-38 142zM575 1135l74 313h307l-73 -313h-308z" />
<glyph unicode="&#xc0;" horiz-adv-x="1110" d="M-27 0l621 1446h563l-104 -1446h-344l30 322h-268l-123 -322h-375zM510 1796h346l191 -252h-248zM565 569h197l65 744z" />
<glyph unicode="&#xc1;" horiz-adv-x="1110" d="M-27 0l621 1446h563l-104 -1446h-344l30 322h-268l-123 -322h-375zM565 569h197l65 744zM707 1544l190 254h340l-281 -254h-249z" />
<glyph unicode="&#xc2;" horiz-adv-x="1110" d="M-27 0l621 1446h563l-104 -1446h-344l30 322h-268l-123 -322h-375zM522 1542l273 256h260l145 -256h-215l-76 127l-135 -127h-252zM565 569h197l65 744z" />
<glyph unicode="&#xc3;" horiz-adv-x="1110" d="M-27 0l621 1446h563l-104 -1446h-344l30 322h-268l-123 -322h-375zM563 1563q4 31 13.5 72.5t32 78.5t62.5 62.5t107 25.5q39 0 73 -9t60 -19q35 -12 74 -25.5t66 -13.5q47 0 63 19.5t27 41.5h92q-6 -29 -16.5 -71t-33 -80.5t-63.5 -65.5t-106 -27q-41 0 -76 10.5 t-64 20.5q-35 14 -72.5 27.5t-62.5 13.5q-45 0 -59 -20.5t-23 -40.5h-94zM565 569h197l65 744z" />
<glyph unicode="&#xc4;" horiz-adv-x="1110" d="M-27 0l621 1446h563l-104 -1446h-344l30 322h-268l-123 -322h-375zM518 1538l60 256h284l-59 -256h-285zM565 569h197l65 744zM971 1538l59 256h287l-62 -256h-284z" />
<glyph unicode="&#xc5;" horiz-adv-x="1110" d="M-27 0l621 1446h563l-104 -1446h-344l30 322h-268l-123 -322h-375zM565 569h197l65 744zM707 1659q4 88 60 132t148 44q88 0 151.5 -42t68.5 -136q0 -47 -19.5 -81t-50.5 -55.5t-68.5 -30.5t-72.5 -9q-88 0 -152.5 47t-64.5 131zM823 1657q0 -14 4 -30.5t15.5 -32 t31 -25.5t48.5 -10t47 11t28.5 26.5t14.5 33t4 27.5q0 14 -4 30.5t-14.5 31t-29 24.5t-46.5 10q-29 0 -48.5 -10t-31 -24.5t-15.5 -31t-4 -30.5z" />
<glyph unicode="&#xc6;" horiz-adv-x="1622" d="M-20 0l837 1446h1012l-60 -250h-372l-78 -334h352l-57 -248h-352l-84 -364h409l-57 -250h-758l94 401h-280l-211 -401h-395zM721 651h203l149 639z" />
<glyph unicode="&#xc7;" horiz-adv-x="1067" d="M100 258v22.5t3 37t10.5 57.5t19.5 86l139 610q20 88 49 162t84.5 127t144.5 81.5t232 28.5q123 0 205 -21.5t131 -60t69.5 -93t20.5 -117.5q0 -47 -12 -103l-43 -178h-336l39 170q6 20 6 47q0 31 -10 49.5t-26.5 27.5t-35 12t-36.5 3q-10 0 -26.5 -1t-34 -9t-33 -25.5 t-23.5 -50.5l-172 -741q-4 -18 -8 -37.5t-4 -36.5q0 -31 13 -47t29.5 -24.5t34 -9.5t23.5 -1q41 0 67.5 14.5t45 51.5t34 99.5t35.5 158.5h359l-52 -211q-25 -98 -56.5 -165t-81.5 -109t-123.5 -62t-180.5 -27l-74 -88q16 -2 42 -7t49.5 -19.5t40 -40t16.5 -68.5 q0 -33 -13.5 -67.5t-43 -63.5t-76.5 -47t-113 -18q-63 0 -104 15t-82 36v94q29 -10 58.5 -20.5t61.5 -10.5q31 0 51.5 10.5t33 25.5t16.5 31.5t4 26.5q0 31 -23.5 52.5t-58.5 21.5q-10 0 -19.5 -1t-19.5 -3q-2 10 -4 26.5t-4 26.5l90 90q-94 10 -156.5 39t-100.5 69 t-54.5 86t-16.5 89z" />
<glyph unicode="&#xc8;" horiz-adv-x="894" d="M41 0l334 1446h727l-58 -250h-374l-76 -328h356l-55 -245h-358l-84 -369h409l-57 -254h-764zM393 1796h346l191 -252h-248z" />
<glyph unicode="&#xc9;" horiz-adv-x="894" d="M41 0l334 1446h727l-58 -250h-374l-76 -328h356l-55 -245h-358l-84 -369h409l-57 -254h-764zM590 1544l190 254h340l-280 -254h-250z" />
<glyph unicode="&#xca;" horiz-adv-x="894" d="M41 0l334 1446h727l-58 -250h-374l-76 -328h356l-55 -245h-358l-84 -369h409l-57 -254h-764zM406 1542l272 256h260l145 -256h-215l-75 127l-136 -127h-251z" />
<glyph unicode="&#xcb;" horiz-adv-x="894" d="M41 0l334 1446h727l-58 -250h-374l-76 -328h356l-55 -245h-358l-84 -369h409l-57 -254h-764zM379 1538l59 256h285l-59 -256h-285zM831 1538l60 256h287l-62 -256h-285z" />
<glyph unicode="&#xcc;" horiz-adv-x="555" d="M43 0l334 1446h350l-334 -1446h-350zM211 1796h346l191 -252h-248z" />
<glyph unicode="&#xcd;" horiz-adv-x="555" d="M43 0l334 1446h350l-334 -1446h-350zM408 1544l190 254h340l-281 -254h-249z" />
<glyph unicode="&#xce;" horiz-adv-x="555" d="M43 0l334 1446h350l-334 -1446h-350zM223 1542l273 256h260l145 -256h-215l-76 127l-135 -127h-252z" />
<glyph unicode="&#xcf;" horiz-adv-x="555" d="M43 0l334 1446h350l-334 -1446h-350zM197 1538l59 256h285l-60 -256h-284zM649 1538l60 256h286l-61 -256h-285z" />
<glyph unicode="&#xd0;" horiz-adv-x="1110" d="M45 0l158 682h-111l49 209h111l127 557h405q96 0 179.5 -4t144.5 -27.5t97 -74t36 -140.5q0 -57 -16 -139l-164 -711q-23 -98 -47.5 -165.5t-67.5 -108.5t-110.5 -59.5t-173.5 -18.5h-617zM451 242h98.5t54.5 4q12 2 27.5 6t32 17.5t32 39t25.5 72.5l160 700q2 10 3 19.5 t1 19.5q0 51 -29 65.5t-74 14.5h-110l-72 -309h133l-49 -209h-131z" />
<glyph unicode="&#xd1;" horiz-adv-x="1150" d="M45 0l334 1446h340q23 -176 38 -294t25.5 -211t19.5 -182t21 -210q14 92 24.5 152.5t20 109.5t19.5 98t24 119q16 78 26.5 127t20 90t18.5 85t23 116h322l-336 -1446h-336l-51 416q-10 88 -17.5 142t-12.5 101.5t-10 99.5t-11 132l-176 -891h-326zM563 1563 q4 31 13.5 72.5t32 78.5t62.5 62.5t107 25.5q39 0 73 -9t60 -19q35 -12 74 -25.5t66 -13.5q47 0 63 19.5t27 41.5h92q-6 -29 -16.5 -71t-33 -80.5t-63.5 -65.5t-106 -27q-41 0 -76 10.5t-64 20.5q-35 14 -72.5 27.5t-62.5 13.5q-45 0 -59 -20.5t-23 -40.5h-94z" />
<glyph unicode="&#xd2;" horiz-adv-x="1110" d="M115 295q0 41 8 93t16 87l133 559q20 88 47 167t80.5 139.5t144.5 95t240 34.5q29 0 70 -3t86 -10t90 -22.5t80 -39.5q37 -27 59.5 -56.5t33.5 -61.5t15.5 -62.5t4.5 -57.5q0 -72 -18.5 -159t-35.5 -158l-114 -488q-25 -106 -63 -179t-96 -118t-143 -65.5t-204 -20.5 q-72 0 -148.5 12.5t-140 48.5t-104.5 99.5t-41 165.5zM461 315q0 -84 106 -84q72 0 100.5 50.5t53.5 148.5q8 29 26.5 105.5t39 162.5t39 164t26.5 111q10 43 16 67.5t9.5 40t4.5 22.5t1 15q0 41 -24.5 66.5t-76.5 25.5q-68 0 -90 -29.5t-30 -58.5q-6 -23 -23.5 -87 t-40.5 -150t-47.5 -180.5t-44 -176.5t-32.5 -141t-13 -72zM489 1796h347l190 -252h-248z" />
<glyph unicode="&#xd3;" horiz-adv-x="1110" d="M115 295q0 41 8 93t16 87l133 559q20 88 47 167t80.5 139.5t144.5 95t240 34.5q29 0 70 -3t86 -10t90 -22.5t80 -39.5q37 -27 59.5 -56.5t33.5 -61.5t15.5 -62.5t4.5 -57.5q0 -72 -18.5 -159t-35.5 -158l-114 -488q-25 -106 -63 -179t-96 -118t-143 -65.5t-204 -20.5 q-72 0 -148.5 12.5t-140 48.5t-104.5 99.5t-41 165.5zM461 315q0 -84 106 -84q72 0 100.5 50.5t53.5 148.5q8 29 26.5 105.5t39 162.5t39 164t26.5 111q10 43 16 67.5t9.5 40t4.5 22.5t1 15q0 41 -24.5 66.5t-76.5 25.5q-68 0 -90 -29.5t-30 -58.5q-6 -23 -23.5 -87 t-40.5 -150t-47.5 -180.5t-44 -176.5t-32.5 -141t-13 -72zM696 1544l191 254h340l-281 -254h-250z" />
<glyph unicode="&#xd4;" horiz-adv-x="1110" d="M115 295q0 41 8 93t16 87l133 559q20 88 47 167t80.5 139.5t144.5 95t240 34.5q29 0 70 -3t86 -10t90 -22.5t80 -39.5q37 -27 59.5 -56.5t33.5 -61.5t15.5 -62.5t4.5 -57.5q0 -72 -18.5 -159t-35.5 -158l-114 -488q-25 -106 -63 -179t-96 -118t-143 -65.5t-204 -20.5 q-72 0 -148.5 12.5t-140 48.5t-104.5 99.5t-41 165.5zM461 315q0 -84 106 -84q72 0 100.5 50.5t53.5 148.5q8 29 26.5 105.5t39 162.5t39 164t26.5 111q10 43 16 67.5t9.5 40t4.5 22.5t1 15q0 41 -24.5 66.5t-76.5 25.5q-68 0 -90 -29.5t-30 -58.5q-6 -23 -23.5 -87 t-40.5 -150t-47.5 -180.5t-44 -176.5t-32.5 -141t-13 -72zM512 1542l272 256h260l146 -256h-215l-76 127l-135 -127h-252z" />
<glyph unicode="&#xd5;" horiz-adv-x="1110" d="M115 295q0 41 8 93t16 87l133 559q20 88 47 167t80.5 139.5t144.5 95t240 34.5q29 0 70 -3t86 -10t90 -22.5t80 -39.5q37 -27 59.5 -56.5t33.5 -61.5t15.5 -62.5t4.5 -57.5q0 -72 -18.5 -159t-35.5 -158l-114 -488q-25 -106 -63 -179t-96 -118t-143 -65.5t-204 -20.5 q-72 0 -148.5 12.5t-140 48.5t-104.5 99.5t-41 165.5zM461 315q0 -84 106 -84q72 0 100.5 50.5t53.5 148.5q8 29 26.5 105.5t39 162.5t39 164t26.5 111q10 43 16 67.5t9.5 40t4.5 22.5t1 15q0 41 -24.5 66.5t-76.5 25.5q-68 0 -90 -29.5t-30 -58.5q-6 -23 -23.5 -87 t-40.5 -150t-47.5 -180.5t-44 -176.5t-32.5 -141t-13 -72zM553 1563q4 31 13 72.5t32 78.5t62.5 62.5t107.5 25.5q39 0 72.5 -9t60.5 -19q35 -12 74 -25.5t65 -13.5q47 0 63.5 19.5t26.5 41.5h93q-6 -29 -16.5 -71t-33 -80.5t-63.5 -65.5t-106 -27q-41 0 -76 10.5t-64 20.5 q-35 14 -72.5 27.5t-62.5 13.5q-45 0 -59.5 -20.5t-22.5 -40.5h-94z" />
<glyph unicode="&#xd6;" horiz-adv-x="1110" d="M115 295q0 41 8 93t16 87l133 559q20 88 47 167t80.5 139.5t144.5 95t240 34.5q29 0 70 -3t86 -10t90 -22.5t80 -39.5q37 -27 59.5 -56.5t33.5 -61.5t15.5 -62.5t4.5 -57.5q0 -72 -18.5 -159t-35.5 -158l-114 -488q-25 -106 -63 -179t-96 -118t-143 -65.5t-204 -20.5 q-72 0 -148.5 12.5t-140 48.5t-104.5 99.5t-41 165.5zM461 315q0 -84 106 -84q72 0 100.5 50.5t53.5 148.5q8 29 26.5 105.5t39 162.5t39 164t26.5 111q10 43 16 67.5t9.5 40t4.5 22.5t1 15q0 41 -24.5 66.5t-76.5 25.5q-68 0 -90 -29.5t-30 -58.5q-6 -23 -23.5 -87 t-40.5 -150t-47.5 -180.5t-44 -176.5t-32.5 -141t-13 -72zM500 1538l59 256h285l-60 -256h-284zM952 1538l60 256h286l-61 -256h-285z" />
<glyph unicode="&#xd7;" horiz-adv-x="1366" d="M221 225l373 371l-373 375l185 180l372 -369l375 369l182 -180l-370 -375l370 -371l-182 -186l-375 373l-372 -373z" />
<glyph unicode="&#xd8;" horiz-adv-x="1110" d="M23 88l106 115q-4 23 -7 43t-3 49q0 31 3 58.5t9 63.5t16.5 84t26.5 120q29 121 57.5 238.5t63.5 236.5q20 70 46 137t76 120.5t135 86.5t226 33q98 0 165 -12.5t111 -31t71.5 -41t48.5 -40.5l77 82l86 -82l-112 -121q4 -16 5 -28.5t1 -29.5q0 -18 -3 -46.5t-11.5 -75 t-22.5 -113t-37 -164.5q-31 -133 -57.5 -235.5t-48.5 -180.5q-23 -80 -49.5 -149.5t-77 -119.5t-133 -80t-216.5 -30q-96 0 -160.5 10.5t-107.5 26t-69.5 36t-51.5 40.5l-77 -80zM446 334q0 -33 11.5 -54.5t29 -34t39 -17.5t39.5 -5q41 0 69 16.5t48 46t35.5 70.5t32.5 93 q2 10 7 25t15 54t28.5 106.5t49.5 182.5l-399 -438q-2 -10 -3.5 -22.5t-1.5 -22.5zM487 594l408 448q6 37 6 74q0 41 -17.5 63.5t-39 33t-41 12.5t-23.5 2q-45 0 -74.5 -19.5t-52 -59.5t-42 -101.5t-42.5 -143.5t-44 -165t-38 -144z" />
<glyph unicode="&#xd9;" horiz-adv-x="1110" d="M106 295q2 51 12.5 118.5t39.5 186.5l200 848h349l-238 -1034q-4 -10 -8 -34t-4 -46q0 -45 29.5 -65.5t76.5 -20.5q37 0 61.5 14t41 38t25.5 53.5t18 60.5l237 1034h348l-239 -1034q-18 -84 -47 -162t-84.5 -139.5t-147.5 -98.5t-239 -37q-86 0 -165 16.5t-139.5 54.5 t-94.5 98.5t-32 148.5zM489 1796h347l190 -252h-248z" />
<glyph unicode="&#xda;" horiz-adv-x="1110" d="M106 295q2 51 12.5 118.5t39.5 186.5l200 848h349l-238 -1034q-4 -10 -8 -34t-4 -46q0 -45 29.5 -65.5t76.5 -20.5q37 0 61.5 14t41 38t25.5 53.5t18 60.5l237 1034h348l-239 -1034q-18 -84 -47 -162t-84.5 -139.5t-147.5 -98.5t-239 -37q-86 0 -165 16.5t-139.5 54.5 t-94.5 98.5t-32 148.5zM686 1544l191 254h340l-281 -254h-250z" />
<glyph unicode="&#xdb;" horiz-adv-x="1110" d="M106 295q2 51 12.5 118.5t39.5 186.5l200 848h349l-238 -1034q-4 -10 -8 -34t-4 -46q0 -45 29.5 -65.5t76.5 -20.5q37 0 61.5 14t41 38t25.5 53.5t18 60.5l237 1034h348l-239 -1034q-18 -84 -47 -162t-84.5 -139.5t-147.5 -98.5t-239 -37q-86 0 -165 16.5t-139.5 54.5 t-94.5 98.5t-32 148.5zM502 1542l272 256h260l146 -256h-215l-76 127l-135 -127h-252z" />
<glyph unicode="&#xdc;" horiz-adv-x="1110" d="M106 295q2 51 12.5 118.5t39.5 186.5l200 848h349l-238 -1034q-4 -10 -8 -34t-4 -46q0 -45 29.5 -65.5t76.5 -20.5q37 0 61.5 14t41 38t25.5 53.5t18 60.5l237 1034h348l-239 -1034q-18 -84 -47 -162t-84.5 -139.5t-147.5 -98.5t-239 -37q-86 0 -165 16.5t-139.5 54.5 t-94.5 98.5t-32 148.5zM477 1538l60 256h284l-59 -256h-285zM930 1538l59 256h287l-62 -256h-284z" />
<glyph unicode="&#xdd;" horiz-adv-x="1067" d="M264 1446h342l49 -590l295 590h391l-600 -975l-108 -471h-348l116 500zM664 1544l190 254h340l-281 -254h-249z" />
<glyph unicode="&#xde;" horiz-adv-x="1067" d="M45 0l334 1448l352 8l-57 -250h192q31 0 83 -4t102.5 -25.5t86.5 -67.5t36 -132q0 -23 -3.5 -54.5t-11.5 -64.5l-47 -211q-10 -43 -30.5 -103.5t-43.5 -97.5q-14 -23 -35.5 -42t-56.5 -34.5t-86 -24.5t-123 -9h-266l-76 -336h-350zM532 598h138q33 0 63.5 11.5t52.5 68.5 q2 10 10.5 37.5t15.5 59.5t13 63.5t6 48.5q0 25 -9 39t-23.5 20t-29.5 8t-28 2h-125z" />
<glyph unicode="&#xdf;" horiz-adv-x="1067" d="M37 0l260 1122q18 80 44 144.5t75 110.5t130 71t210 25q74 0 146.5 -12.5t128.5 -40t91 -74t35 -115.5q0 -20 -3 -47t-8 -52.5t-9 -46t-7 -28.5q-12 -57 -26 -100.5t-34.5 -74t-52.5 -50t-79 -29.5q-8 -2 -16.5 -3t-14.5 -3q4 -2 13.5 -4t19.5 -7q55 -20 88 -62t33 -101 q0 -25 -11.5 -85.5t-26.5 -130t-33.5 -137t-33.5 -104.5q-41 -98 -123.5 -138t-205.5 -40q-51 0 -103.5 4t-105.5 8l41 176q20 -2 39.5 -4t42.5 -2q35 0 55 9t33.5 29.5t23 54.5t21.5 83l45 195q4 25 7 43t7 34q10 66 -29.5 84.5t-107.5 20.5l45 201q59 -2 94 3t58 34 q12 14 21 45.5t17.5 65.5t12.5 64.5t4 43.5q0 10 -2 23.5t-12.5 24.5t-30 18t-53.5 7q-59 0 -84 -29.5t-41 -101.5l-260 -1122h-328z" />
<glyph unicode="&#xe0;" horiz-adv-x="980" d="M37 170q0 25 8 70t22.5 95t35 97t44.5 76q25 29 61 51.5t96.5 45t154.5 51t237 69.5q8 33 16.5 75t8.5 54q0 43 -31 52t-57 9q-35 0 -56.5 -9t-36 -28.5t-24.5 -50t-22 -71.5h-312q18 72 32.5 121t33 83.5t44 58t62.5 42.5q57 29 133 43t162 14q70 0 139.5 -10t123 -37 t87 -74t33.5 -118q0 -31 -5 -62t-13 -61l-146 -631q-2 -12 -4 -24.5t-2 -24.5q0 -37 9.5 -50.5t21.5 -25.5h-373l29 115q-29 -25 -59.5 -49.5t-67.5 -46t-78 -35t-90 -13.5q-8 0 -43 3t-74 21.5t-69.5 59.5t-30.5 115zM332 1495h344l195 -254h-250zM375 252 q0 -29 15.5 -48.5t55.5 -19.5q43 0 76 21.5t60 44.5l67 264q-55 -16 -116.5 -37.5t-90.5 -44.5q-20 -16 -33.5 -44t-20.5 -55.5t-10 -50t-3 -30.5z" />
<glyph unicode="&#xe1;" horiz-adv-x="980" d="M37 170q0 25 8 70t22.5 95t35 97t44.5 76q25 29 61 51.5t96.5 45t154.5 51t237 69.5q8 33 16.5 75t8.5 54q0 43 -31 52t-57 9q-35 0 -56.5 -9t-36 -28.5t-24.5 -50t-22 -71.5h-312q18 72 32.5 121t33 83.5t44 58t62.5 42.5q57 29 133 43t162 14q70 0 139.5 -10t123 -37 t87 -74t33.5 -118q0 -31 -5 -62t-13 -61l-146 -631q-2 -12 -4 -24.5t-2 -24.5q0 -37 9.5 -50.5t21.5 -25.5h-373l29 115q-29 -25 -59.5 -49.5t-67.5 -46t-78 -35t-90 -13.5q-8 0 -43 3t-74 21.5t-69.5 59.5t-30.5 115zM375 252q0 -29 15.5 -48.5t55.5 -19.5q43 0 76 21.5 t60 44.5l67 264q-55 -16 -116.5 -37.5t-90.5 -44.5q-20 -16 -33.5 -44t-20.5 -55.5t-10 -50t-3 -30.5zM547 1239l190 256h340l-282 -256h-248z" />
<glyph unicode="&#xe2;" horiz-adv-x="980" d="M37 170q0 25 8 70t22.5 95t35 97t44.5 76q25 29 61 51.5t96.5 45t154.5 51t237 69.5q8 33 16.5 75t8.5 54q0 43 -31 52t-57 9q-35 0 -56.5 -9t-36 -28.5t-24.5 -50t-22 -71.5h-312q18 72 32.5 121t33 83.5t44 58t62.5 42.5q57 29 133 43t162 14q70 0 139.5 -10t123 -37 t87 -74t33.5 -118q0 -31 -5 -62t-13 -61l-146 -631q-2 -12 -4 -24.5t-2 -24.5q0 -37 9.5 -50.5t21.5 -25.5h-373l29 115q-29 -25 -59.5 -49.5t-67.5 -46t-78 -35t-90 -13.5q-8 0 -43 3t-74 21.5t-69.5 59.5t-30.5 115zM360 1239l275 256h258l145 -256h-215l-76 127 l-137 -127h-250zM375 252q0 -29 15.5 -48.5t55.5 -19.5q43 0 76 21.5t60 44.5l67 264q-55 -16 -116.5 -37.5t-90.5 -44.5q-20 -16 -33.5 -44t-20.5 -55.5t-10 -50t-3 -30.5z" />
<glyph unicode="&#xe3;" horiz-adv-x="980" d="M37 170q0 25 8 70t22.5 95t35 97t44.5 76q25 29 61 51.5t96.5 45t154.5 51t237 69.5q8 33 16.5 75t8.5 54q0 43 -31 52t-57 9q-35 0 -56.5 -9t-36 -28.5t-24.5 -50t-22 -71.5h-312q18 72 32.5 121t33 83.5t44 58t62.5 42.5q57 29 133 43t162 14q70 0 139.5 -10t123 -37 t87 -74t33.5 -118q0 -31 -5 -62t-13 -61l-146 -631q-2 -12 -4 -24.5t-2 -24.5q0 -37 9.5 -50.5t21.5 -25.5h-373l29 115q-29 -25 -59.5 -49.5t-67.5 -46t-78 -35t-90 -13.5q-8 0 -43 3t-74 21.5t-69.5 59.5t-30.5 115zM375 252q0 -29 15.5 -48.5t55.5 -19.5q43 0 76 21.5 t60 44.5l67 264q-55 -16 -116.5 -37.5t-90.5 -44.5q-20 -16 -33.5 -44t-20.5 -55.5t-10 -50t-3 -30.5zM407 1260q4 31 12.5 71.5t30 77.5t62.5 63.5t110 26.5q35 0 70 -9t63 -20q35 -12 73 -24t67 -12q45 0 61 19.5t27 39.5h92q-6 -31 -16.5 -72t-33 -79.5t-63.5 -65.5 t-108 -27q-35 0 -70 9.5t-66 21.5q-35 12 -75.5 26.5t-63.5 14.5q-41 0 -57.5 -22.5t-24.5 -38.5h-90z" />
<glyph unicode="&#xe4;" horiz-adv-x="980" d="M37 170q0 25 8 70t22.5 95t35 97t44.5 76q25 29 61 51.5t96.5 45t154.5 51t237 69.5q8 33 16.5 75t8.5 54q0 43 -31 52t-57 9q-35 0 -56.5 -9t-36 -28.5t-24.5 -50t-22 -71.5h-312q18 72 32.5 121t33 83.5t44 58t62.5 42.5q57 29 133 43t162 14q70 0 139.5 -10t123 -37 t87 -74t33.5 -118q0 -31 -5 -62t-13 -61l-146 -631q-2 -12 -4 -24.5t-2 -24.5q0 -37 9.5 -50.5t21.5 -25.5h-373l29 115q-29 -25 -59.5 -49.5t-67.5 -46t-78 -35t-90 -13.5q-8 0 -43 3t-74 21.5t-69.5 59.5t-30.5 115zM330 1237l57 256h285l-60 -256h-282zM375 252 q0 -29 15.5 -48.5t55.5 -19.5q43 0 76 21.5t60 44.5l67 264q-55 -16 -116.5 -37.5t-90.5 -44.5q-20 -16 -33.5 -44t-20.5 -55.5t-10 -50t-3 -30.5zM780 1237l58 256h286l-57 -256h-287z" />
<glyph unicode="&#xe5;" horiz-adv-x="980" d="M37 170q0 25 8 70t22.5 95t35 97t44.5 76q25 29 61 51.5t96.5 45t154.5 51t237 69.5q8 33 16.5 75t8.5 54q0 43 -31 52t-57 9q-35 0 -56.5 -9t-36 -28.5t-24.5 -50t-22 -71.5h-312q18 72 32.5 121t33 83.5t44 58t62.5 42.5q57 29 133 43t162 14q70 0 139.5 -10t123 -37 t87 -74t33.5 -118q0 -31 -5 -62t-13 -61l-146 -631q-2 -12 -4 -24.5t-2 -24.5q0 -37 9.5 -50.5t21.5 -25.5h-373l29 115q-29 -25 -59.5 -49.5t-67.5 -46t-78 -35t-90 -13.5q-8 0 -43 3t-74 21.5t-69.5 59.5t-30.5 115zM375 252q0 -29 15.5 -48.5t55.5 -19.5q43 0 76 21.5 t60 44.5l67 264q-55 -16 -116.5 -37.5t-90.5 -44.5q-20 -16 -33.5 -44t-20.5 -55.5t-10 -50t-3 -30.5zM524 1380q4 88 60.5 132t148.5 44q88 0 151.5 -41.5t67.5 -136.5q0 -47 -19.5 -80.5t-50 -55t-68.5 -31t-73 -9.5q-88 0 -152.5 47t-64.5 131zM641 1378q0 -14 4 -30.5 t15 -32t30.5 -25.5t48.5 -10t47.5 11.5t28.5 26.5t14 32.5t4 27.5q0 14 -4 30.5t-14 31t-28.5 25t-47.5 10.5t-48.5 -10.5t-30.5 -25t-15 -30.5t-4 -31z" />
<glyph unicode="&#xe6;" horiz-adv-x="1492" d="M39 188q0 27 6 62t14.5 69.5t18.5 65.5t20 51q20 45 48 75t64 51.5t84 37.5t112 35l272 82q8 31 16 68.5t8 52.5q0 41 -24.5 59t-59.5 18q-31 0 -51 -9t-33.5 -29.5t-24.5 -52t-24 -76.5h-313q14 57 24.5 97t20.5 68.5t22.5 51t30.5 43.5q33 37 78 60.5t94.5 35.5 t95.5 16t80 4q80 0 155 -24.5t120 -87.5q31 41 72 63.5t81.5 33.5t76.5 13t59 2q102 0 159.5 -21.5t69.5 -29.5q74 -41 97.5 -103.5t23.5 -115.5q0 -59 -18.5 -149.5t-47.5 -217.5h-516q-10 -47 -23.5 -107.5t-13.5 -100.5q0 -29 9.5 -45.5t21.5 -23.5t26.5 -9t24.5 -2 q33 0 54.5 13t36 35.5t22.5 52.5t16 62h334q-10 -41 -22.5 -82.5t-31 -80.5t-44 -75t-64.5 -65q-53 -41 -136 -63.5t-179 -22.5q-31 0 -78 4.5t-96 20.5t-92 46t-64 83q-12 -16 -34.5 -43t-62.5 -51.5t-100.5 -43t-148.5 -18.5q-20 0 -64 4.5t-89.5 26t-79 65.5t-33.5 121z M367 258q0 -78 75 -78q47 0 75 19.5t50 42.5l62 266q-61 -20 -100.5 -33.5t-63 -26t-37.5 -26.5t-27 -35q-14 -27 -24 -66.5t-10 -62.5zM993 680h199q6 29 17.5 76t11.5 69q0 45 -26 62.5t-62 17.5q-35 0 -58.5 -15.5t-36.5 -39.5q-4 -8 -10 -30.5t-13 -49.5t-13.5 -52.5 t-8.5 -37.5z" />
<glyph unicode="&#xe7;" horiz-adv-x="980" d="M109 266q0 35 9 92.5t22.5 122t29.5 129t29.5 117.5t23.5 88t10 37q31 94 83.5 148.5t114 81t127 33.5t122.5 7q172 0 275.5 -71.5t103.5 -206.5q0 -41 -8.5 -79t-18.5 -77h-315q10 41 19 79t9 60q0 35 -20 54.5t-61 19.5q-68 0 -93.5 -42t-40.5 -101l-102 -439 q-2 -10 -3 -18t-1 -18q0 -23 4 -35t8 -17q23 -37 76 -36q35 0 56.5 13t35.5 37.5t22.5 59.5t18.5 78h330q-16 -78 -39 -148.5t-67 -125t-117.5 -90t-194.5 -46.5l-74 -88q16 -2 42 -7t49.5 -18.5t40 -39t16.5 -70.5q0 -33 -13.5 -67.5t-43 -63.5t-76.5 -47t-113 -18 q-63 0 -104 15t-82 36v94q29 -10 58.5 -20.5t61.5 -10.5q31 0 51.5 10.5t33 25.5t16.5 31.5t4 26.5q0 31 -23.5 52.5t-58.5 21.5q-10 0 -19.5 -1t-19.5 -3q-2 10 -4 26.5t-4 26.5l96 97q-27 6 -75 18t-94 43t-79.5 84t-33.5 139z" />
<glyph unicode="&#xe8;" d="M111 266q0 55 16 148.5t39.5 190.5t47.5 179t36 113q14 33 39.5 73t73 73.5t122 57t187.5 23.5q49 0 115.5 -7t127 -34.5t102.5 -81t42 -145.5q0 -35 -5 -69.5t-14 -69.5q-12 -59 -24 -117.5t-29 -128.5h-524q-12 -47 -24.5 -106.5t-12.5 -94.5q0 -18 6 -32 q25 -41 90 -41q35 0 55.5 11t34 31.5t21.5 50t16 64.5h334q-16 -61 -37.5 -128.5t-73.5 -123.5q-49 -57 -135 -94t-231 -37q-20 0 -57 2t-80 11.5t-87 26t-81 44.5q-35 29 -62.5 76t-27.5 135zM352 1495h344l195 -254h-250zM508 672h211q2 12 7 33.5l10 43t8.5 42t3.5 30.5 q0 16 -3.5 30.5t-13.5 25.5q-16 18 -38.5 23t-39.5 5q-37 0 -60.5 -14t-38.5 -43t-24.5 -73t-21.5 -103z" />
<glyph unicode="&#xe9;" d="M111 266q0 55 16 148.5t39.5 190.5t47.5 179t36 113q14 33 39.5 73t73 73.5t122 57t187.5 23.5q49 0 115.5 -7t127 -34.5t102.5 -81t42 -145.5q0 -35 -5 -69.5t-14 -69.5q-12 -59 -24 -117.5t-29 -128.5h-524q-12 -47 -24.5 -106.5t-12.5 -94.5q0 -18 6 -32 q25 -41 90 -41q35 0 55.5 11t34 31.5t21.5 50t16 64.5h334q-16 -61 -37.5 -128.5t-73.5 -123.5q-49 -57 -135 -94t-231 -37q-20 0 -57 2t-80 11.5t-87 26t-81 44.5q-35 29 -62.5 76t-27.5 135zM508 672h211q2 12 7 33.5l10 43t8.5 42t3.5 30.5q0 16 -3.5 30.5t-13.5 25.5 q-16 18 -38.5 23t-39.5 5q-37 0 -60.5 -14t-38.5 -43t-24.5 -73t-21.5 -103zM567 1239l190 256h340l-282 -256h-248z" />
<glyph unicode="&#xea;" d="M111 266q0 55 16 148.5t39.5 190.5t47.5 179t36 113q14 33 39.5 73t73 73.5t122 57t187.5 23.5q49 0 115.5 -7t127 -34.5t102.5 -81t42 -145.5q0 -35 -5 -69.5t-14 -69.5q-12 -59 -24 -117.5t-29 -128.5h-524q-12 -47 -24.5 -106.5t-12.5 -94.5q0 -18 6 -32 q25 -41 90 -41q35 0 55.5 11t34 31.5t21.5 50t16 64.5h334q-16 -61 -37.5 -128.5t-73.5 -123.5q-49 -57 -135 -94t-231 -37q-20 0 -57 2t-80 11.5t-87 26t-81 44.5q-35 29 -62.5 76t-27.5 135zM381 1239l275 256h258l145 -256h-215l-76 127l-137 -127h-250zM508 672h211 q2 12 7 33.5l10 43t8.5 42t3.5 30.5q0 16 -3.5 30.5t-13.5 25.5q-16 18 -38.5 23t-39.5 5q-37 0 -60.5 -14t-38.5 -43t-24.5 -73t-21.5 -103z" />
<glyph unicode="&#xeb;" d="M111 266q0 55 16 148.5t39.5 190.5t47.5 179t36 113q14 33 39.5 73t73 73.5t122 57t187.5 23.5q49 0 115.5 -7t127 -34.5t102.5 -81t42 -145.5q0 -35 -5 -69.5t-14 -69.5q-12 -59 -24 -117.5t-29 -128.5h-524q-12 -47 -24.5 -106.5t-12.5 -94.5q0 -18 6 -32 q25 -41 90 -41q35 0 55.5 11t34 31.5t21.5 50t16 64.5h334q-16 -61 -37.5 -128.5t-73.5 -123.5q-49 -57 -135 -94t-231 -37q-20 0 -57 2t-80 11.5t-87 26t-81 44.5q-35 29 -62.5 76t-27.5 135zM361 1237l57 256h285l-60 -256h-282zM508 672h211q2 12 7 33.5l10 43t8.5 42 t3.5 30.5q0 16 -3.5 30.5t-13.5 25.5q-16 18 -38.5 23t-39.5 5q-37 0 -60.5 -14t-38.5 -43t-24.5 -73t-21.5 -103zM811 1237l58 256h286l-57 -256h-287z" />
<glyph unicode="&#xec;" horiz-adv-x="512" d="M39 0l252 1098h327l-253 -1098h-326zM96 1495h344l195 -254h-250z" />
<glyph unicode="&#xed;" horiz-adv-x="512" d="M39 0l252 1098h327l-253 -1098h-326zM311 1239l190 256h340l-282 -256h-248z" />
<glyph unicode="&#xee;" horiz-adv-x="512" d="M39 0l252 1098h327l-253 -1098h-326zM125 1239l275 256h258l145 -256h-215l-76 127l-137 -127h-250z" />
<glyph unicode="&#xef;" horiz-adv-x="512" d="M39 0l252 1098h327l-253 -1098h-326zM105 1237l57 256h285l-60 -256h-282zM555 1237l58 256h286l-57 -256h-287z" />
<glyph unicode="&#xf0;" d="M109 270q0 45 14 127t33.5 167t38 156t24.5 91q8 29 28.5 82t62.5 106.5t110.5 92t171.5 38.5q16 0 41.5 -3t54.5 -11t56.5 -24.5t48.5 -42.5q-4 45 -13.5 83.5t-42.5 102.5l-243 -70l-45 121l223 64q-25 35 -32 46t-17 23l256 80q2 -4 10 -15t17 -22.5t17.5 -23 t10.5 -15.5l137 41l47 -123l-117 -34q25 -45 50.5 -126t25.5 -188q0 -51 -7 -125.5t-21.5 -165t-37 -191.5t-50.5 -202q-16 -55 -39 -114.5t-69 -108.5t-127 -80t-212 -31q-88 0 -161.5 15.5t-128 49.5t-85 90t-30.5 140zM428 281q0 -33 20.5 -58.5t69.5 -25.5q63 0 86 45 t35 102l102 438q6 20 7 43q0 41 -27 61.5t-64 20.5q-35 0 -55 -12t-32.5 -31.5t-19.5 -41t-11 -40.5l-101 -438q-10 -31 -10 -63z" />
<glyph unicode="&#xf1;" d="M41 0l252 1098h321l-26 -109q45 49 92 76t87 39t69.5 15t42.5 3q23 0 57.5 -6t67 -26.5t56 -59.5t23.5 -106q0 -29 -4 -55.5t-10 -51.5l-188 -817h-326l176 772q4 18 5 31.5t1 19.5q0 29 -10 45.5t-24.5 23.5t-26.5 8t-14 1q-35 0 -57.5 -16.5t-37 -38t-20.5 -43 t-8 -33.5l-179 -770h-319zM428 1260q4 31 12.5 71.5t30 77.5t62.5 63.5t110 26.5q35 0 70 -9t63 -20q35 -12 73 -24t67 -12q45 0 61 19.5t27 39.5h92q-6 -31 -16.5 -72t-33 -79.5t-63.5 -65.5t-108 -27q-35 0 -70 9.5t-66 21.5q-35 12 -75.5 26.5t-63.5 14.5 q-41 0 -57.5 -22.5t-24.5 -38.5h-90z" />
<glyph unicode="&#xf2;" d="M111 272q0 45 14 126t33.5 166t38 154.5t24.5 92.5q12 43 36 98.5t70 103.5t120.5 80.5t193.5 32.5q61 0 135 -8t137.5 -38.5t106.5 -91t43 -163.5q0 -43 -14.5 -125t-34 -170t-39 -165.5t-31.5 -112.5q-14 -43 -37.5 -91t-69.5 -90t-123 -69t-200 -27q-92 0 -167 16.5 t-127 51.5t-80.5 92.5t-28.5 136.5zM352 1495h344l195 -254h-250zM430 281q0 -33 20.5 -58.5t67.5 -25.5q33 0 53.5 12t33.5 32.5t21.5 47t14.5 55.5l98 438q6 20 6 43q2 41 -24.5 61.5t-63.5 20.5q-33 0 -54 -12t-33.5 -31.5t-18.5 -41t-10 -40.5l-103 -438 q-4 -14 -6 -30.5t-2 -32.5z" />
<glyph unicode="&#xf3;" d="M111 272q0 45 14 126t33.5 166t38 154.5t24.5 92.5q12 43 36 98.5t70 103.5t120.5 80.5t193.5 32.5q61 0 135 -8t137.5 -38.5t106.5 -91t43 -163.5q0 -43 -14.5 -125t-34 -170t-39 -165.5t-31.5 -112.5q-14 -43 -37.5 -91t-69.5 -90t-123 -69t-200 -27q-92 0 -167 16.5 t-127 51.5t-80.5 92.5t-28.5 136.5zM430 281q0 -33 20.5 -58.5t67.5 -25.5q33 0 53.5 12t33.5 32.5t21.5 47t14.5 55.5l98 438q6 20 6 43q2 41 -24.5 61.5t-63.5 20.5q-33 0 -54 -12t-33.5 -31.5t-18.5 -41t-10 -40.5l-103 -438q-4 -14 -6 -30.5t-2 -32.5zM567 1239l190 256 h340l-282 -256h-248z" />
<glyph unicode="&#xf4;" d="M111 272q0 45 14 126t33.5 166t38 154.5t24.5 92.5q12 43 36 98.5t70 103.5t120.5 80.5t193.5 32.5q61 0 135 -8t137.5 -38.5t106.5 -91t43 -163.5q0 -43 -14.5 -125t-34 -170t-39 -165.5t-31.5 -112.5q-14 -43 -37.5 -91t-69.5 -90t-123 -69t-200 -27q-92 0 -167 16.5 t-127 51.5t-80.5 92.5t-28.5 136.5zM381 1239l275 256h258l145 -256h-215l-76 127l-137 -127h-250zM430 281q0 -33 20.5 -58.5t67.5 -25.5q33 0 53.5 12t33.5 32.5t21.5 47t14.5 55.5l98 438q6 20 6 43q2 41 -24.5 61.5t-63.5 20.5q-33 0 -54 -12t-33.5 -31.5t-18.5 -41 t-10 -40.5l-103 -438q-4 -14 -6 -30.5t-2 -32.5z" />
<glyph unicode="&#xf5;" d="M111 272q0 45 14 126t33.5 166t38 154.5t24.5 92.5q12 43 36 98.5t70 103.5t120.5 80.5t193.5 32.5q61 0 135 -8t137.5 -38.5t106.5 -91t43 -163.5q0 -43 -14.5 -125t-34 -170t-39 -165.5t-31.5 -112.5q-14 -43 -37.5 -91t-69.5 -90t-123 -69t-200 -27q-92 0 -167 16.5 t-127 51.5t-80.5 92.5t-28.5 136.5zM428 1260q4 31 12.5 71.5t30 77.5t62.5 63.5t110 26.5q35 0 70 -9t63 -20q35 -12 73 -24t67 -12q45 0 61 19.5t27 39.5h92q-6 -31 -16.5 -72t-33 -79.5t-63.5 -65.5t-108 -27q-35 0 -70 9.5t-66 21.5q-35 12 -75.5 26.5t-63.5 14.5 q-41 0 -57.5 -22.5t-24.5 -38.5h-90zM430 281q0 -33 20.5 -58.5t67.5 -25.5q33 0 53.5 12t33.5 32.5t21.5 47t14.5 55.5l98 438q6 20 6 43q2 41 -24.5 61.5t-63.5 20.5q-33 0 -54 -12t-33.5 -31.5t-18.5 -41t-10 -40.5l-103 -438q-4 -14 -6 -30.5t-2 -32.5z" />
<glyph unicode="&#xf6;" d="M111 272q0 45 14 126t33.5 166t38 154.5t24.5 92.5q12 43 36 98.5t70 103.5t120.5 80.5t193.5 32.5q61 0 135 -8t137.5 -38.5t106.5 -91t43 -163.5q0 -43 -14.5 -125t-34 -170t-39 -165.5t-31.5 -112.5q-14 -43 -37.5 -91t-69.5 -90t-123 -69t-200 -27q-92 0 -167 16.5 t-127 51.5t-80.5 92.5t-28.5 136.5zM363 1237l57 256h285l-60 -256h-282zM430 281q0 -33 20.5 -58.5t67.5 -25.5q33 0 53.5 12t33.5 32.5t21.5 47t14.5 55.5l98 438q6 20 6 43q2 41 -24.5 61.5t-63.5 20.5q-33 0 -54 -12t-33.5 -31.5t-18.5 -41t-10 -40.5l-103 -438 q-4 -14 -6 -30.5t-2 -32.5zM813 1237l58 256h286l-57 -256h-287z" />
<glyph unicode="&#xf7;" horiz-adv-x="1366" d="M78 463v260h1364v-260h-1364zM594 225q0 66 45 116t121 50q72 0 118 -48t46 -118q0 -31 -11.5 -59.5t-32 -52t-52 -38t-70.5 -14.5q-66 0 -115 46.5t-49 117.5zM594 958q0 66 45 116t121 50q72 0 118 -48t46 -118q0 -31 -11.5 -59.5t-32 -52t-52 -37.5t-70.5 -14 q-66 0 -115 46t-49 117z" />
<glyph unicode="&#xf8;" d="M47 18l90 107q-12 23 -22.5 53.5t-10.5 89.5q0 45 12.5 117t31 150.5t39 150.5t34.5 117q27 82 61.5 143.5t85 100t118 58t161.5 19.5q76 0 148.5 -12t138.5 -49l90 104l76 -61l-86 -102q12 -16 21 -33t16.5 -35t11.5 -42t4 -56q0 -47 -13.5 -122t-31.5 -156 t-38.5 -155.5t-35.5 -121.5q-23 -72 -52.5 -129.5t-78.5 -97.5t-122.5 -61.5t-184.5 -21.5q-31 0 -69 3.5t-78.5 11.5t-81.5 23.5t-78 39.5l-82 -96zM393 272q2 -10 5 -25.5t14.5 -30.5t32 -26.5t57.5 -11.5q47 0 78.5 25.5t56.5 85.5q8 18 20.5 56t25.5 84t27.5 95t26 89 t17.5 66l6 26zM420 453l342 407q-8 16 -26.5 38t-71.5 22q-37 0 -63 -16.5t-42 -40t-24.5 -47t-12.5 -36.5z" />
<glyph unicode="&#xf9;" d="M88 178q0 16 3 47t13 76l183 797h331l-165 -717q-10 -39 -14.5 -62.5t-4.5 -42.5q0 -41 24.5 -60t53.5 -19q33 0 55.5 17t36.5 44t23.5 57.5t15.5 57.5l166 725h330l-254 -1098h-328l25 115q-18 -20 -44 -44t-60 -44.5t-77 -33.5t-98 -13q-31 0 -67.5 7t-69.5 28.5 t-55.5 60.5t-22.5 102zM352 1495h344l195 -254h-250z" />
<glyph unicode="&#xfa;" d="M88 178q0 16 3 47t13 76l183 797h331l-165 -717q-10 -39 -14.5 -62.5t-4.5 -42.5q0 -41 24.5 -60t53.5 -19q33 0 55.5 17t36.5 44t23.5 57.5t15.5 57.5l166 725h330l-254 -1098h-328l25 115q-18 -20 -44 -44t-60 -44.5t-77 -33.5t-98 -13q-31 0 -67.5 7t-69.5 28.5 t-55.5 60.5t-22.5 102zM567 1239l190 256h340l-282 -256h-248z" />
<glyph unicode="&#xfb;" d="M88 178q0 16 3 47t13 76l183 797h331l-165 -717q-10 -39 -14.5 -62.5t-4.5 -42.5q0 -41 24.5 -60t53.5 -19q33 0 55.5 17t36.5 44t23.5 57.5t15.5 57.5l166 725h330l-254 -1098h-328l25 115q-18 -20 -44 -44t-60 -44.5t-77 -33.5t-98 -13q-31 0 -67.5 7t-69.5 28.5 t-55.5 60.5t-22.5 102zM381 1239l275 256h258l145 -256h-215l-76 127l-137 -127h-250z" />
<glyph unicode="&#xfc;" d="M88 178q0 16 3 47t13 76l183 797h331l-165 -717q-10 -39 -14.5 -62.5t-4.5 -42.5q0 -41 24.5 -60t53.5 -19q33 0 55.5 17t36.5 44t23.5 57.5t15.5 57.5l166 725h330l-254 -1098h-328l25 115q-18 -20 -44 -44t-60 -44.5t-77 -33.5t-98 -13q-31 0 -67.5 7t-69.5 28.5 t-55.5 60.5t-22.5 102zM377 1237l57 256h285l-60 -256h-282zM827 1237l58 256h286l-57 -256h-287z" />
<glyph unicode="&#xfd;" horiz-adv-x="894" d="M-119 -399l45 241q78 -2 124 0t70.5 15.5t32 44t9.5 86.5l33 1108h325l-90 -965q8 39 14.5 64.5t12.5 47t13 44t19 57.5l256 752h355l-445 -1014q-68 -154 -122 -249t-118.5 -147.5t-155.5 -69.5t-232 -17q-35 0 -72 1t-74 1zM506 1239l190 256h340l-282 -256h-248z" />
<glyph unicode="&#xfe;" d="M-51 -395l426 1841h330l-119 -490q20 27 45.5 55.5t59.5 53.5t77 40t100 15q92 0 157 -54t65 -167q0 -23 -3.5 -55.5t-13.5 -73.5l-106 -463q-37 -160 -111 -246t-209 -86q-96 0 -157.5 42t-79.5 108q-4 8 -3 21.5t-4 0.5l-124 -542h-330zM440 279q0 -47 28 -66.5 t58 -19.5q86 0 113 114l98 428q6 27 11.5 50.5t5.5 41.5q0 41 -23.5 62.5t-60.5 21.5q-31 0 -51.5 -10t-33 -25.5t-19.5 -33t-9 -31.5l-104 -453q-4 -18 -8.5 -40.5t-4.5 -38.5z" />
<glyph unicode="&#xff;" horiz-adv-x="894" d="M-119 -399l45 241q78 -2 124 0t70.5 15.5t32 44t9.5 86.5l33 1108h325l-90 -965q8 39 14.5 64.5t12.5 47t13 44t19 57.5l256 752h355l-445 -1014q-68 -154 -122 -249t-118.5 -147.5t-155.5 -69.5t-232 -17q-35 0 -72 1t-74 1zM299 1237l57 256h285l-60 -256h-282z M749 1237l58 256h286l-57 -256h-287z" />
<glyph unicode="&#x152;" horiz-adv-x="1449" d="M106 244q0 35 9.5 95t24 132t31.5 150.5t35.5 152.5t35 137.5t26.5 104.5q31 119 61.5 205t73.5 142t105.5 83t159.5 27q61 0 105 -9.5t75 -25t52.5 -32.5t37.5 -32l16 72h717l-57 -250h-367l-76 -330h345l-58 -252h-346l-82 -362h397l-57 -252h-749l20 88 q-16 -18 -35.5 -37.5t-49.5 -36t-70 -28t-97 -11.5q-61 0 -112.5 13.5t-89 45.5t-59.5 83t-22 127zM463 293q0 -51 30.5 -69.5t59.5 -18.5q43 0 70.5 17.5t48 58.5t38 109.5t42.5 170.5l106 463q6 31 12.5 62.5t6.5 60.5q0 49 -30 69.5t-71 20.5q-39 0 -63.5 -14.5t-43 -52 t-37 -104.5t-44.5 -173q-10 -43 -31.5 -130t-42 -181.5t-36 -175t-15.5 -113.5z" />
<glyph unicode="&#x153;" horiz-adv-x="1536" d="M111 262q0 55 17 149.5t39.5 189.5t42 169t23.5 86q8 27 29 73t66 90t123.5 76.5t203.5 32.5q70 0 118 -12t80 -30.5t50.5 -38t28.5 -33.5q23 18 43 35.5t57 33.5q51 23 107.5 32t109.5 9q72 0 134.5 -15t108.5 -48t72.5 -82t26.5 -117q0 -25 -2 -47t-10 -61 t-21.5 -102.5t-37.5 -168.5h-516q-6 -27 -13.5 -58.5t-14.5 -61t-11 -53t-4 -36.5q0 -37 24.5 -55t58.5 -18q37 0 58.5 12t36 33.5t21.5 49.5t16 60h331q-16 -68 -40.5 -136t-73.5 -122q-47 -55 -128 -89t-214 -34q-86 0 -158 24t-117 95q-14 -14 -37.5 -34.5t-61.5 -40 t-91.5 -33t-126.5 -13.5q-139 0 -236 62q-113 74 -112 227zM426 279q0 -43 27.5 -61.5t58.5 -18.5q35 0 56.5 12t33.5 29.5t17.5 37t9.5 33.5l102 434q4 25 8 45.5t4 38.5q0 29 -10 44.5t-24.5 22.5t-29.5 8t-24 1q-59 0 -84.5 -44t-42.5 -116l-94 -403q-6 -27 -7 -42 t-1 -21zM1044 676h203q10 39 19.5 85t9.5 68q0 29 -10.5 45.5t-24.5 23.5t-27.5 9t-21.5 2q-39 0 -62.5 -17.5t-39 -48t-25.5 -73.5t-21 -94z" />
<glyph unicode="&#x178;" horiz-adv-x="1067" d="M264 1446h342l49 -590l295 590h391l-600 -975l-108 -471h-348l116 500zM442 1538l60 256h284l-59 -256h-285zM895 1538l59 256h287l-61 -256h-285z" />
<glyph unicode="&#x2c6;" horiz-adv-x="512" d="M-82 1239l275 256h258l145 -256h-215l-76 127l-137 -127h-250z" />
<glyph unicode="&#x2dc;" horiz-adv-x="512" d="M-78 1260q4 31 12.5 71.5t30 77.5t62.5 63.5t110 26.5q35 0 70 -9t63 -20q35 -12 73 -24t67 -12q45 0 61 19.5t27 39.5h92q-6 -31 -16.5 -72t-33 -79.5t-63.5 -65.5t-108 -27q-35 0 -70 9.5t-66 21.5q-35 12 -75.5 26.5t-63.5 14.5q-41 0 -57.5 -22.5t-24.5 -38.5h-90z " />
<glyph unicode="&#x2000;" horiz-adv-x="917" />
<glyph unicode="&#x2001;" horiz-adv-x="1835" />
<glyph unicode="&#x2002;" horiz-adv-x="917" />
<glyph unicode="&#x2003;" horiz-adv-x="1835" />
<glyph unicode="&#x2004;" horiz-adv-x="611" />
<glyph unicode="&#x2005;" horiz-adv-x="458" />
<glyph unicode="&#x2006;" horiz-adv-x="305" />
<glyph unicode="&#x2007;" horiz-adv-x="305" />
<glyph unicode="&#x2008;" horiz-adv-x="229" />
<glyph unicode="&#x2009;" horiz-adv-x="367" />
<glyph unicode="&#x200a;" horiz-adv-x="101" />
<glyph unicode="&#x2010;" horiz-adv-x="681" d="M143 604l54 236h553l-54 -236h-553z" />
<glyph unicode="&#x2011;" horiz-adv-x="681" d="M143 604l54 236h553l-54 -236h-553z" />
<glyph unicode="&#x2012;" horiz-adv-x="681" d="M143 604l54 236h553l-54 -236h-553z" />
<glyph unicode="&#x2013;" horiz-adv-x="1067" d="M150 604l53 236h927l-53 -236h-927z" />
<glyph unicode="&#x2014;" horiz-adv-x="1193" d="M150 604l55 234h1050l-53 -234h-1052z" />
<glyph unicode="&#x2018;" horiz-adv-x="512" d="M229 817l74 316l248 313h131l-186 -313h114l-73 -316h-308z" />
<glyph unicode="&#x2019;" horiz-adv-x="512" d="M236 817l186 318h-113l72 313h309l-72 -313l-249 -318h-133z" />
<glyph unicode="&#x201a;" horiz-adv-x="512" d="M-35 -317l187 317h-115l74 313h309l-74 -313l-250 -317h-131z" />
<glyph unicode="&#x201c;" horiz-adv-x="894" d="M221 819l72 307l237 322h142l-183 -322h109l-72 -307h-305zM635 819l70 307l243 322h137l-186 -322h113l-72 -307h-305z" />
<glyph unicode="&#x201d;" horiz-adv-x="894" d="M229 819l187 318h-113l72 311h307l-72 -311l-245 -318h-136zM643 819l184 318h-110l71 311h306l-72 -311l-238 -318h-141z" />
<glyph unicode="&#x201e;" horiz-adv-x="894" d="M-51 -315l184 315h-113l72 313h305l-71 -313l-242 -315h-135zM362 -315l181 315h-109l74 313h303l-72 -313l-237 -315h-140z" />
<glyph unicode="&#x2022;" horiz-adv-x="681" d="M131 721q0 63 24.5 121.5t67.5 102.5t101.5 69.5t128.5 25.5q59 0 115.5 -21.5t100.5 -62.5t70.5 -100t26.5 -135q0 -66 -22.5 -124t-62.5 -101t-98.5 -68t-127.5 -25q-76 0 -136.5 28t-101.5 73t-63.5 102.5t-22.5 114.5z" />
<glyph unicode="&#x2026;" horiz-adv-x="2048" d="M131 0l72 313h305l-72 -313h-305zM813 0l72 313h305l-72 -313h-305zM1495 0l72 313h307l-74 -313h-305z" />
<glyph unicode="&#x202f;" horiz-adv-x="367" />
<glyph unicode="&#x2039;" horiz-adv-x="468" d="M96 451l64 262l389 270l-70 -299l-172 -113l121 -120l-61 -256z" />
<glyph unicode="&#x203a;" horiz-adv-x="468" d="M63 195l68 299l172 114l-117 117l60 258l268 -258l-61 -260z" />
<glyph unicode="&#x205f;" horiz-adv-x="458" />
<glyph unicode="&#x2122;" horiz-adv-x="1409" d="M190 1309v137h586v-137h-205v-543h-172v543h-209zM831 766v680h218l155 -492l146 492h219v-680h-168l8 362q0 27 2 58t10 82q-8 -29 -14 -58.5t-14 -52.5l-115 -391h-154l-120 393q-2 6 -6.5 20.5t-9.5 31t-8 31.5t-5 22q4 -35 8 -68t6 -68l8 -362h-166z" />
<glyph unicode="&#xe000;" horiz-adv-x="1095" d="M0 0v1096h1096v-1096h-1096z" />
</font>
</defs>
</svg>
